<svg width="128" height="128" viewBox="0 0 128 128" fill="none" xmlns="http://www.w3.org/2000/svg">
<path d="M0 46.3237C0 30.1089 0 22.0015 3.15561 15.8083C5.93138 10.3605 10.3605 5.93138 15.8083 3.15561C22.0015 0 30.1089 0 46.3237 0H81.6763C97.8912 0 105.999 0 112.192 3.15561C117.639 5.93138 122.069 10.3605 124.844 15.8083C128 22.0015 128 30.1089 128 46.3237V81.6763C128 97.8912 128 105.999 124.844 112.192C122.069 117.639 117.639 122.069 112.192 124.844C105.999 128 97.8912 128 81.6763 128H46.3237C30.1089 128 22.0015 128 15.8083 124.844C10.3605 122.069 5.93138 117.639 3.15561 112.192C0 105.999 0 97.8912 0 81.6763V46.3237Z" fill="#330000"/>
<path d="M62.0278 80.4402H42.1929L38.1572 93.2983C38.0452 93.776 37.6054 94.1143 37.1268 94.0905H27.0804C26.5074 94.0905 26.3071 93.7677 26.4793 93.1218L43.6525 42.3945C43.8244 41.866 43.9963 41.2644 44.1677 40.5892C44.3926 39.4139 44.5074 38.2199 44.5115 37.0226C44.4621 36.6688 44.773 36.3563 45.1122 36.4058H58.7652C59.1652 36.4058 59.3938 36.5527 59.4518 36.8461L78.944 93.21C79.1154 93.7975 78.944 94.0909 78.4288 94.0905H67.2658C66.8745 94.1353 66.5005 93.8669 66.4073 93.4743L62.0278 80.4402ZM45.2841 69.3435H58.8512C56.6221 61.7266 54.1065 54.2098 52.0676 46.5339C49.8678 54.2231 47.4678 61.8811 45.2841 69.3435Z" fill="#FF9A00"/>
<path d="M90.5348 45.7408C89.659 45.7769 88.7858 45.6229 87.9716 45.2891C87.1579 44.9554 86.4219 44.4489 85.8121 43.8034C85.2041 43.1296 84.7314 42.3397 84.4219 41.478C84.1124 40.6167 83.9721 39.701 84.0087 38.7836C83.9776 37.8752 84.1335 36.9705 84.4663 36.1282C84.7995 35.286 85.3019 34.5253 85.941 33.8957C86.5737 33.2726 87.3207 32.7845 88.139 32.4595C88.9568 32.1345 89.8295 31.9791 90.7063 32.0023C92.7675 32.0023 94.3844 32.6334 95.5579 33.8957C96.1504 34.5517 96.6107 35.3211 96.9129 36.1598C97.2146 36.9984 97.3527 37.8903 97.3179 38.7836C97.354 39.7042 97.2091 40.6236 96.8919 41.4857C96.5751 42.3479 96.0919 43.136 95.472 43.8034C94.8242 44.4585 94.0507 44.9687 93.2014 45.3024C92.3515 45.6357 91.4436 45.7852 90.5348 45.7408ZM84.6098 93.2096V51.1131C84.6098 50.5847 84.8379 50.3205 85.2969 50.3205H95.8587C96.3159 50.3205 96.5449 50.5847 96.5454 51.1131V93.2096C96.5454 93.7975 96.3163 94.091 95.8587 94.0905H85.3828C84.8676 94.0905 84.6098 93.797 84.6098 93.2096Z" fill="#FF9A00"/>
</svg>
