<svg width="128" height="75" viewBox="0 0 128 75" fill="none" xmlns="http://www.w3.org/2000/svg">
<path d="M128 72.3348C123.344 73.5188 120.464 72.3868 117.88 68.5068L99.504 43.0828L96.848 39.5628L75.388 68.5908C72.936 72.0828 70.364 73.6028 65.788 72.3668L93.268 35.4788L67.684 2.15882C72.084 1.30282 75.124 1.73882 77.824 5.67882L96.884 31.4188L116.084 5.81882C118.544 2.32682 121.188 0.998819 125.604 2.28682L115.684 15.4388L102.244 32.9388C100.644 34.9388 100.864 36.3068 102.336 38.2388L128 72.3348ZM0.032 34.8628L2.28 23.8068C8.4 1.92682 33.48 -7.16518 50.776 6.35482C60.884 14.3068 63.396 25.5548 62.896 38.1548H5.92C5.064 60.8348 21.388 74.5228 42.2 67.5388C49.5 65.0868 53.8 59.3708 55.952 52.2188C57.044 48.6348 58.852 48.0748 62.22 49.0988C60.5 58.0428 56.62 65.5148 48.42 70.1908C36.168 77.1908 18.68 74.9268 9.48 65.1988C4 59.5548 1.736 52.4028 0.72 44.7548C0.56 43.4908 0.24 42.2868 0 41.0748C0.0213333 39.0055 0.032 36.9362 0.032 34.8668V34.8628ZM6.024 33.3428H57.512C57.176 16.9428 46.964 5.29482 33.008 5.19482C17.688 5.07482 6.688 16.4468 6.024 33.3428Z" fill="#8CC84B"/>
</svg>
