<svg width="128" height="176" viewBox="0 0 128 176" fill="none" xmlns="http://www.w3.org/2000/svg">
<path d="M0 141.8L1.06666 140.313L51.3882 44.853L51.4949 43.8428L29.3145 2.18009C28.9084 1.41822 28.2731 0.803319 27.4984 0.422377C26.7236 0.0414342 25.8487 -0.0862608 24.9974 0.0573567C24.1461 0.200974 23.3615 0.608633 22.7547 1.22266C22.1478 1.83669 21.7493 2.62599 21.6157 3.47892L0 141.8Z" fill="#FFC24A"/>
<path d="M0.626587 140.671L1.42972 139.102L51.2305 44.6334L29.1066 2.80755C28.7417 2.08016 28.151 1.49057 27.423 1.12711C26.6949 0.763643 25.8686 0.645872 25.068 0.791442C24.2674 0.937011 23.5355 1.33808 22.9819 1.93457C22.4284 2.53105 22.083 3.29084 21.9976 4.1001L0.626587 140.671Z" fill="#FFA712"/>
<path d="M67.6637 75.3536L84.1782 58.4124L67.6575 26.9081C67.2938 26.2301 66.7532 25.6634 66.093 25.2683C65.4328 24.8732 64.6778 24.6646 63.9084 24.6646C63.1391 24.6646 62.3841 24.8732 61.7239 25.2683C61.0637 25.6634 60.523 26.2301 60.1594 26.9081L51.3312 43.7363V45.1732L67.6637 75.3536Z" fill="#F4BD62"/>
<path d="M67.3696 74.6631L83.4261 58.2238L67.3696 27.6042C67.1068 26.9415 66.6579 26.3688 66.077 25.9554C65.4961 25.542 64.808 25.3055 64.0957 25.2743C63.3834 25.2431 62.6773 25.4187 62.0625 25.7797C61.4477 26.1408 60.9505 26.672 60.6308 27.3093L51.7586 44.4325L51.4951 45.3046L67.3696 74.6631Z" fill="#FFA50E"/>
<path d="M0.012207 141.807L0.495345 141.317L2.24593 140.608L66.6224 76.4702L67.4381 74.249L51.3816 43.642L0.012207 141.807Z" fill="#F6820C"/>
<path d="M69.7224 174.152L128 141.656L111.347 39.1873C111.228 38.4649 110.912 37.7894 110.434 37.2349C109.956 36.6805 109.334 36.2685 108.637 36.0442C107.94 35.8198 107.195 35.7919 106.483 35.9634C105.771 36.1349 105.121 36.4992 104.602 37.0163L0 141.801L57.9325 174.146C59.7336 175.151 61.7618 175.678 63.8243 175.678C65.8868 175.678 67.915 175.151 69.7161 174.146" fill="#FDE068"/>
<path d="M127.466 141.386L110.951 39.6891C110.922 38.9982 110.689 38.3314 110.28 37.7733C109.872 37.2151 109.308 36.7906 108.658 36.5535C108.008 36.3163 107.303 36.2772 106.631 36.4411C105.959 36.605 105.351 36.9645 104.884 37.4742L0.626587 141.606L57.9191 173.606C59.7059 174.603 61.7179 175.126 63.7638 175.126C65.8098 175.126 67.8218 174.603 69.6085 173.606L127.466 141.386Z" fill="#FCCA3F"/>
<path d="M69.7224 173.173C67.9213 174.178 65.8931 174.706 63.8306 174.706C61.7681 174.706 59.7399 174.178 57.9388 173.173L0.476861 141.311L0 141.801L57.9325 174.146C59.7336 175.151 61.7618 175.678 63.8243 175.678C65.8868 175.678 67.915 175.151 69.7161 174.146L128 141.656L127.856 140.778L69.7224 173.173Z" fill="#EEAB37"/>
</svg>
