<svg width="128" height="128" viewBox="0 0 128 128" fill="none" xmlns="http://www.w3.org/2000/svg">
<rect width="128" height="128" rx="8" fill="#F7DF1E"/>
<path d="M104.631 82.5909C104.479 80.9242 103.805 79.6288 102.608 78.7045C101.426 77.7652 99.737 77.2955 97.54 77.2955C96.0855 77.2955 94.8733 77.4848 93.9036 77.8636C92.9339 78.2424 92.2067 78.7652 91.7218 79.4318C91.237 80.0833 90.987 80.8333 90.9718 81.6818C90.9415 82.3788 91.0779 82.9924 91.3809 83.5227C91.6991 84.053 92.1536 84.5227 92.7446 84.9318C93.3506 85.3258 94.0779 85.6742 94.9264 85.9773C95.7749 86.2803 96.7294 86.5455 97.79 86.7727L101.79 87.6818C104.093 88.1818 106.123 88.8485 107.881 89.6818C109.654 90.5152 111.139 91.5076 112.335 92.6591C113.548 93.8106 114.464 95.1364 115.085 96.6364C115.707 98.1364 116.025 99.8182 116.04 101.682C116.025 104.621 115.282 107.144 113.813 109.25C112.343 111.356 110.229 112.97 107.472 114.091C104.729 115.212 101.419 115.773 97.54 115.773C93.6461 115.773 90.2521 115.189 87.3582 114.023C84.4643 112.856 82.2143 111.083 80.6082 108.705C79.0021 106.326 78.1764 103.318 78.1309 99.6818H88.9036C88.9946 101.182 89.3961 102.432 90.1082 103.432C90.8203 104.432 91.7976 105.189 93.04 105.705C94.2976 106.22 95.7521 106.477 97.4036 106.477C98.9188 106.477 100.207 106.273 101.267 105.864C102.343 105.455 103.169 104.886 103.745 104.159C104.32 103.432 104.616 102.598 104.631 101.659C104.616 100.78 104.343 100.03 103.813 99.4091C103.282 98.7727 102.464 98.2273 101.358 97.7727C100.267 97.303 98.8733 96.8712 97.1764 96.4773L92.3127 95.3409C88.2824 94.4167 85.1082 92.9242 82.79 90.8636C80.4718 88.7879 79.3203 85.9848 79.3355 82.4545C79.3203 79.5758 80.093 77.053 81.6536 74.8864C83.2143 72.7197 85.3733 71.0303 88.1309 69.8182C90.8885 68.6061 94.0324 68 97.5627 68C101.169 68 104.298 68.6136 106.949 69.8409C109.616 71.053 111.684 72.7576 113.154 74.9545C114.623 77.1515 115.373 79.697 115.404 82.5909H104.631Z" fill="#262626"/>
<path d="M61.3184 68.6364H72.4093V100.818C72.3942 103.833 71.6745 106.47 70.2502 108.727C68.826 110.97 66.8563 112.712 64.3412 113.955C61.8412 115.197 58.9472 115.818 55.6593 115.818C52.7502 115.818 50.1063 115.311 47.7275 114.295C45.3639 113.28 43.4775 111.705 42.0684 109.568C40.6745 107.432 39.9851 104.697 40.0002 101.364H51.2048C51.2502 102.561 51.4775 103.583 51.8866 104.432C52.3109 105.265 52.8942 105.894 53.6366 106.318C54.379 106.742 55.2654 106.955 56.2957 106.955C57.3715 106.955 58.2805 106.727 59.023 106.273C59.7654 105.803 60.326 105.114 60.7048 104.205C61.0987 103.295 61.3033 102.167 61.3184 100.818V68.6364Z" fill="#262626"/>
</svg>
