<svg width="128" height="128" viewBox="0 0 128 128" fill="none" xmlns="http://www.w3.org/2000/svg">
<path d="M128 64.0009C128 99.3456 99.3457 128 63.9993 128C28.653 128 0 99.3461 0 64.0009C0 28.6535 28.6525 0 63.9989 0C99.3452 0 128 28.6535 128 64.0009Z" fill="#DD4814"/>
<path d="M20.4808 55.4566C15.7607 55.4566 11.936 59.2813 11.936 64.0014C11.936 68.7197 15.7607 72.5449 20.4808 72.5449C25.1991 72.5449 29.0242 68.7197 29.0242 64.0014C29.0242 59.2809 25.1996 55.4566 20.4808 55.4566ZM81.489 94.2914C77.402 96.6508 76.0031 101.874 78.3616 105.96C80.7214 110.047 85.9445 111.446 90.0315 109.087C94.1172 106.728 95.517 101.505 93.1577 97.418C90.7987 93.3327 85.5747 91.9325 81.489 94.2914ZM39.0406 64.0001C39.0406 55.5555 43.2369 48.0967 49.654 43.5802L43.4072 33.1163C35.9294 38.1123 30.3671 45.75 28.0565 54.6953C30.7555 56.8953 32.48 60.2454 32.48 64.001C32.48 67.7557 30.7555 71.1058 28.0561 73.3053C30.3662 82.2515 35.929 89.8892 43.4067 94.8847L49.654 84.4199C43.2369 79.9043 39.0406 72.446 39.0406 64.0001ZM64.0003 39.0403C77.0399 39.0403 87.7358 49.0382 88.8571 61.7865L101.035 61.6086C100.435 52.1964 96.324 43.7441 90.0054 37.5321C86.7569 38.7594 83.004 38.5734 79.7605 36.7003C76.5129 34.8255 74.475 31.6627 73.9169 28.2305C70.7596 27.3567 67.4366 26.8803 64.0008 26.8803C58.0917 26.8803 52.5091 28.2675 47.5502 30.724L53.4863 41.3626C56.682 39.8757 60.2429 39.0403 64.0003 39.0403ZM64.0003 88.9603C60.2425 88.9603 56.682 88.1249 53.4859 86.638L47.5488 97.2775C52.5082 99.7331 58.0913 101.121 64.0003 101.121C67.4362 101.121 70.7592 100.644 73.9169 99.7706C74.475 96.3383 76.5133 93.1756 79.7614 91.2994C83.0049 89.4272 86.7578 89.2412 90.0063 90.469C96.3244 84.2564 100.436 75.8042 101.034 66.392L88.8566 66.2141C87.7363 78.9642 77.0399 88.9603 64.0003 88.9603ZM81.4877 33.7083C85.5743 36.0686 90.7983 34.6683 93.1568 30.5831C95.5166 26.496 94.1177 21.2724 90.0306 18.9126C85.9445 16.5537 80.7209 17.9535 78.3611 22.0405C76.0022 26.1258 77.402 31.3498 81.4877 33.7083Z" fill="white"/>
</svg>
