<svg width="128" height="141" viewBox="0 0 128 141" fill="none" xmlns="http://www.w3.org/2000/svg">
<path d="M128 56.6067L127.702 56.1404C126.004 53.5009 124.846 51.8738 123.45 50.1488C119.377 45.1113 114.446 41.0015 108.404 37.619C100.102 32.9705 89.3332 29.358 75.7186 26.6513C73.1541 26.1414 67.5456 25.18 62.9672 24.4658L62.5078 23.6581C60.0061 19.2435 57.2416 13.7816 55.637 10.0852C54.3943 7.22278 53.2011 3.92474 52.5391 1.53661C52.1459 0.118429 52.1048 0.026314 51.8866 0.000817919C51.4175 -0.0540123 43.8855 2.65954 39.0462 4.62575C32.4893 7.28968 27.3983 9.8423 24.2576 12.0465C23.2356 12.7642 21.9844 13.982 21.5416 14.6553C21.5383 14.6443 21.5337 14.6345 21.5312 14.6229C21.5312 14.6229 21.4758 14.712 21.4218 14.8719C21.4161 14.8839 21.4081 14.8979 21.4034 14.9094C21.3234 15.1214 21.2853 15.3695 21.2842 15.6239L21.3207 15.6587C21.3341 15.895 21.3856 16.1639 21.5043 16.4603C21.7763 17.1399 22.5924 17.9566 23.4922 18.8218C23.4922 18.8218 32.9183 28.0166 34.0736 29.3498C39.2965 35.3773 41.5653 41.3118 41.7745 49.5046C41.9089 54.7617 40.8948 59.3836 38.4324 64.7551C34.0182 74.3832 24.7182 85 10.3546 96.805L10.5328 96.7455C10.4437 96.8176 10.3505 96.8935 10.2644 96.9612C8.55042 98.3276 6.00136 100.857 4.69887 102.479C2.76035 104.891 1.24484 107.464 0.59318 109.442C-0.579091 113.002 -0.0077596 116.607 2.25317 119.935C5.14162 124.185 10.8917 128.504 17.579 131.443C20.99 132.943 26.7467 134.876 31.0629 135.966C38.2561 137.783 52.1586 139.756 59.8148 140.05C61.3678 140.109 63.4349 140.104 63.5298 140.041C63.6978 139.93 64.8896 137.672 66.2724 134.848C70.9785 125.235 74.3826 116.225 76.2139 108.529C77.3245 103.868 78.1889 97.654 78.7496 90.2854C78.9056 88.2229 78.9629 81.3396 78.8422 78.9999C78.6451 75.1914 78.3101 72.0894 77.7725 69.0436C77.7338 68.8248 77.7081 68.6192 77.6955 68.4618C94.735 63.3983 113.578 58.8158 126.064 56.9034L128 56.6067ZM81.4108 31.2233C81.6065 31.2233 85.4701 32.2769 87.469 32.8743C92.4451 34.3629 98.1869 36.4602 101.911 38.1514L103.461 38.853L102.368 39.1057C93.2546 41.1994 85.4443 43.6155 77.9211 46.6687C77.2963 46.9229 76.7524 47.1307 76.714 47.1307C76.6756 47.1307 76.8755 46.6474 77.1537 46.0568C79.4152 41.2518 80.8756 36.2102 81.2548 31.9293C81.2888 31.5394 81.3584 31.2233 81.4108 31.2233ZM79.3324 33.7708C78.5615 36.9295 76.5191 41.6183 73.9983 46.0253C73.5533 46.802 73.1566 47.4493 73.1108 47.4635C73.0639 47.4775 72.4899 47.1754 71.836 46.7932C69.3714 45.3517 66.5797 43.9876 63.5144 42.7234C62.6591 42.3709 61.9318 42.0567 61.8942 42.0219C61.7541 41.8906 68.567 37.3808 72.1776 35.2136C75.0672 33.4802 79.7171 30.8892 79.7985 30.9703C79.8667 31.0375 79.5805 32.7559 79.3324 33.7708ZM49.8513 95.1337C45.8416 96.6547 41.4743 98.1776 36.4601 99.7984C34.5498 100.416 32.9326 100.938 32.8695 100.961C32.679 101.032 32.7374 100.915 33.2961 100.042C35.7871 96.1525 39.5613 88.5442 41.6709 83.1629C42.0372 82.2297 42.3851 81.2943 42.4478 81.086C42.4687 81.0152 42.4901 80.9568 42.5142 80.9047C42.8053 80.783 43.1 80.661 43.3937 80.5393C43.4584 80.6651 43.5724 80.9404 43.6818 81.237C44.3573 83.0725 45.8764 85.7997 47.197 87.5444C48.6376 89.4484 50.5161 91.4779 52.0881 92.8257C52.5923 93.2591 53.0635 93.6635 53.1307 93.7224C53.2653 93.8422 53.3114 93.8214 49.8513 95.1337ZM52.745 96.9889C52.7595 97.0035 52.5939 97.4484 52.3768 97.9734C50.5276 102.444 48.1058 107.32 45.018 112.798C44.232 114.192 43.5694 115.33 43.5442 115.327C43.5192 115.325 42.8802 114.948 42.1238 114.485C37.6252 111.732 33.6457 108.341 31.0325 105.044L30.6596 104.579L32.5992 104.046C39.5174 102.151 45.3845 100.123 51.2179 97.611C52.044 97.2546 52.7304 96.9744 52.745 96.9889ZM43.1148 41.1657C43.0299 40.5749 42.9778 40.0724 42.9997 40.0516C43.0611 39.9902 46.0022 40.6794 47.6071 41.1298C50.0174 41.807 55.1487 43.524 55.152 43.6553C55.152 43.6808 54.5864 44.174 53.8961 44.7516C51.1223 47.0723 48.4468 49.4988 45.2409 52.5943C44.291 53.5121 43.483 54.2589 43.4436 54.2589C43.4038 54.2589 43.3857 54.1251 43.4082 53.9614C43.8904 50.398 43.7873 45.823 43.1148 41.1657ZM43.905 36.3985C43.905 36.2672 46.5278 33.6449 47.6556 32.6481C49.8091 30.7444 55.6035 26.2371 55.8091 26.3059C55.9298 26.3459 56.1581 27.059 56.5633 28.6625C57.3389 31.7324 57.7002 35.1796 57.5799 38.3694C57.5464 39.2568 57.4902 40.0814 57.4554 40.2023L57.3885 40.4241L56.2927 40.0691C54.0329 39.3473 50.3404 38.2597 47.1756 37.3843C45.3785 36.8865 43.905 36.4421 43.905 36.3985ZM50.3184 50.8764C52.3176 49.1857 56.5258 45.8192 56.5768 45.8701C56.6341 45.9274 55.9196 48.5519 55.467 49.9536C54.599 52.6417 53.1315 56.0206 51.721 58.5639C51.3898 59.1613 50.8813 60.0358 50.5934 60.5082L50.0701 61.3646L48.8805 60.2151C47.4985 58.8751 46.3723 58.0427 44.9347 57.3036C44.3696 57.0127 43.9102 56.7438 43.9096 56.7041C43.9066 56.5297 47.5259 53.2385 50.3184 50.8764ZM49.3112 66.0915C49.3249 66.083 49.3373 66.0795 49.351 66.0781C49.448 66.066 49.5854 66.2462 50.1594 67.1034C51.3682 68.9104 52.2943 71.3202 52.5339 73.2817L52.5821 73.7036L49.6843 74.8268C44.4818 76.8454 39.6926 78.836 36.4579 80.3172C35.5527 80.7318 33.9549 81.4942 32.9115 82.0173C31.8678 82.5379 31.0157 82.9483 31.0157 82.9263C31.0157 82.9047 31.6715 82.4107 32.472 81.8295C38.8208 77.221 44.2948 72.1752 48.4191 67.13C48.8602 66.5905 49.2608 66.1228 49.3112 66.0915ZM50.6551 88.0234C49.0066 86.1106 47.703 84.2129 46.7531 82.3421C46.3509 81.5504 45.7516 80.1171 45.6036 79.6305C48.6094 78.4086 51.7375 77.1856 55.0144 75.9533C55.7217 75.6877 56.4498 75.4201 57.1884 75.1511C57.2649 76.0199 57.1763 79.9836 57.0373 81.1482C56.6656 84.2494 56.0592 87.1178 55.0884 90.3794C54.857 91.1586 54.6393 91.8316 54.6051 91.8708C54.5206 91.9692 51.619 89.1422 50.6551 88.0234ZM54.0513 73.0777C53.9973 73.0964 53.9633 72.788 53.9627 72.3005C53.9575 69.7339 53.3081 66.9899 52.1607 64.6668C51.6758 63.6853 51.5946 63.4479 51.6947 63.3574C52.0941 62.9956 58.2738 59.4722 62.1695 57.3834C64.8452 55.949 68.9544 53.8614 69.0043 53.9126C69.0545 53.9636 66.1334 58.0553 64.3969 60.3662C62.32 63.1307 58.6206 67.7521 56.0753 70.7612C55.0116 72.017 54.1009 73.061 54.0513 73.0777ZM67.1439 51.5558C63.1591 53.5494 59.7462 55.4323 56.1823 57.6098C55.1657 58.2308 54.3139 58.7415 54.2862 58.7415C54.1977 58.7415 54.2325 58.6645 54.8014 57.6227C56.6999 54.1465 58.2299 49.9967 59.1113 45.9409C59.19 45.579 59.2843 45.358 59.3509 45.3726C59.6456 45.4386 62.3995 46.72 64.4775 47.7607C66.3777 48.7123 69.2568 50.2445 69.4005 50.3794C69.4169 50.3964 68.4042 50.926 67.1439 51.5558ZM70.0074 28.7198C72.9587 29.2851 77.2294 30.1791 77.4855 30.2871C77.6105 30.3387 77.1688 30.5791 75.7501 31.2187C70.1418 33.748 65.9878 36.0048 61.8586 38.7688C60.7705 39.497 59.8663 40.0913 59.8477 40.0913C59.8296 40.0913 59.8129 39.4835 59.8123 38.7419C59.8098 34.7149 59.0057 30.6498 57.5311 27.2155C57.3726 26.8462 57.2528 26.5291 57.269 26.5145C57.3348 26.4531 66.0481 27.962 70.0074 28.7198ZM55.6592 16.326C55.7488 16.3328 55.8437 16.5146 56.1077 17.0936C56.8312 18.6785 59.0833 22.9739 59.6275 23.8045C59.673 23.8739 59.7248 23.9263 59.7287 23.9592C55.0807 23.2288 51.2267 22.6092 47.6063 22.008C47.6359 21.9675 47.8303 21.8408 48.0745 21.7048C50.299 20.4678 52.5432 18.9107 54.5412 17.2263C55.0188 16.8238 55.478 16.4403 55.5621 16.3701C55.5961 16.3416 55.6293 16.3235 55.6592 16.326ZM40.054 5.8778C42.9811 4.51636 50.9512 1.19776 51.5316 1.09358C51.5502 1.08975 51.5598 1.08975 51.5628 1.09358C51.5773 1.11113 51.6634 1.70357 51.7492 2.40704C52.1111 5.37144 52.7748 8.24701 53.8133 11.3419C54.5952 13.6738 54.6067 13.5368 53.6754 13.2769C51.5113 12.6726 41.814 11.0085 34.799 10.0367C33.6687 9.8804 32.7275 9.74141 32.7125 9.72633C32.6239 9.63696 37.7716 6.93986 40.054 5.8778ZM31.9139 10.8668C36.4176 12.3996 47.7066 14.5563 53.946 15.0747C54.6503 15.1329 55.2419 15.1954 55.2597 15.2121C55.2778 15.2283 54.6802 15.5479 53.9331 15.9219C50.9227 17.4297 47.6098 19.2676 45.3177 20.7022C44.7874 21.0345 44.2953 21.3133 44.0697 21.4142C43.3811 21.2972 42.6921 21.1795 42.0021 21.0606L39.9786 19.0954C36.2386 15.4756 33.3189 12.6751 32.1891 11.6169L31.0928 10.5872L31.9139 10.8668ZM25.1061 17.3782L25.1097 17.138C25.1242 15.7078 26.9273 13.5979 29.9874 11.439L30.2583 11.2525L33.241 14.9763C34.8826 17.0242 36.5286 19.0571 36.8935 19.4946C37.2028 19.865 37.4509 20.1852 37.5093 20.2831C35.4337 19.9223 33.1297 19.5108 31.4154 19.1415C31.2551 19.1056 31.101 19.0713 30.9551 19.0373C30.3597 18.9013 29.8555 18.7832 29.4092 18.6754C28.2452 18.3862 26.907 18.0213 25.7655 17.6279C25.5552 17.5459 25.3331 17.4632 25.1061 17.3782ZM39.4843 33.9396C39.4645 33.9594 39.2271 33.5912 38.9609 33.1229C36.4826 28.7648 32.5584 24.3334 28.0198 20.7661C27.4542 20.3217 26.9948 19.9442 26.9948 19.9275C27.0082 19.9157 27.3618 20.0248 27.7936 20.1712C28.5895 20.4415 29.6389 20.7576 30.8603 21.0987C31.7167 21.3383 32.6574 21.5894 33.6566 21.8446C34.9323 22.1706 35.9869 22.4508 36.0004 22.4661C36.1415 22.6249 38.2838 29.4614 39.0138 32.0842C39.2929 33.0854 39.504 33.9199 39.4843 33.9396ZM41.6237 34.1702C40.8534 31.2176 39.2608 26.8572 37.8331 23.7889C37.6039 23.2952 37.4161 22.8598 37.4161 22.8212C37.4161 22.816 37.4227 22.8135 37.4386 22.8124C37.5479 22.8047 38.0181 22.8837 38.5793 23.0076C42.1929 23.8067 48.6458 25.0522 52.796 25.7502C53.4865 25.867 54.0562 25.9917 54.0562 26.0298C54.0562 26.0679 53.798 26.2313 53.4835 26.3898C52.7875 26.7396 49.97 28.4262 49.0272 29.057C46.6742 30.632 44.5585 32.318 43.0178 33.8505C42.3985 34.4663 41.8803 34.9688 41.8636 34.9688C41.8466 34.9693 41.7383 34.6105 41.6237 34.1702ZM37.1545 70.8895C38.5549 68.7467 39.2592 67.5341 39.995 65.9846C40.6486 64.6076 41.3002 62.9733 41.7655 61.5508C41.9593 60.9602 42.1614 60.4769 42.2145 60.4769C42.2672 60.4769 42.7628 60.7259 43.315 61.0315C44.6676 61.7811 45.8821 62.6049 46.9541 63.4992C46.9957 63.5334 46.4403 63.9872 45.7207 64.5064C43.7103 65.9569 40.6494 68.2672 38.8765 69.6777C37.0062 71.1655 36.9437 71.2116 37.1545 70.8895ZM29.8843 80.2983C31.274 78.7847 32.338 77.5275 33.5456 75.9588C34.3415 74.9252 34.4931 74.7794 35.6588 73.938C38.7978 71.6727 45.9742 66.8112 46.0579 66.8945C46.1418 66.9784 43.7152 69.7227 42.0813 71.3912C37.9907 75.5651 33.936 78.8379 28.9127 82.0255C28.2841 82.4233 27.7095 82.7849 27.6346 82.8285C27.4962 82.9088 27.6785 82.7026 29.8843 80.2983ZM26.5942 89.2348C26.7401 88.5336 26.8061 88.2128 26.9276 88.0171C30.7292 86.1194 34.7272 84.259 38.9812 82.4131C38.7353 83.0256 37.8484 84.8736 36.9711 86.5863C34.9186 90.5883 32.656 94.529 29.6518 99.3362C29.1334 100.167 28.6561 100.926 28.5914 101.019C28.4842 101.174 28.4404 101.124 28.1117 100.47C27.3923 99.0382 26.7897 97.234 26.4783 95.5548C26.1701 93.894 26.2227 91.0182 26.5942 89.2348ZM4.09107 109.106C4.5744 105.994 6.94773 101.909 10.265 98.4798C12.1722 96.5089 13.7524 95.2316 16.0863 93.8132C17.1141 93.2237 18.3826 92.5192 19.9998 91.635C21.0098 91.0818 22.0362 90.536 23.0725 89.9915C23.0985 90.0682 23.0621 90.3051 22.959 90.8998C22.8647 91.4423 22.758 92.4698 22.7191 93.176C22.5486 96.2778 23.0519 98.5675 24.5924 101.699C25.0206 102.57 25.3553 103.295 25.3375 103.309C25.1834 103.439 11.1554 107.543 6.74486 108.751C5.43743 109.109 4.29532 109.424 4.20183 109.453C4.04885 109.498 4.03542 109.465 4.09107 109.106ZM12.6709 124.183L11.721 123.384C10.6066 122.448 8.65597 120.461 7.77101 119.359C5.95009 117.088 4.71587 114.699 4.22897 112.505C4.00444 111.492 3.99759 110.976 4.21143 110.913C4.52012 110.819 10.1855 109.486 15.4982 108.254C18.4492 107.569 21.8613 106.768 23.0834 106.473C24.3053 106.18 25.3172 105.948 25.3293 105.959C25.3814 106.009 22.6793 109.875 18.907 115.154C17.5955 116.99 16.0556 119.153 15.4853 119.963C14.9148 120.771 14.0524 122.05 13.5635 122.807L12.6709 124.183ZM14.1264 125.292L13.7357 125.013L14.3482 124.129C16.3358 121.25 18.833 118.083 24.299 111.507L28.0456 106.997L28.7288 107.761C31.7845 111.165 34.8922 113.704 38.684 115.896C39.3538 116.284 39.8637 116.619 39.8204 116.646C39.6622 116.744 26.7085 121.35 20.7172 123.438C17.3381 124.615 14.5631 125.574 14.5475 125.572C14.5327 125.569 14.3416 125.444 14.1264 125.292ZM32.2489 133.672L31.9339 133.588C31.1731 133.381 25.8096 131.488 24.3928 130.925C22.6366 130.227 20.8063 129.386 19.4575 128.657C17.7709 127.746 15.6326 126.394 15.8003 126.34C15.848 126.325 18.7502 125.531 22.2445 124.577C31.541 122.044 36.6835 120.588 40.0559 119.536C40.6861 119.34 41.2117 119.191 41.2229 119.202C41.2506 119.231 39.7458 121.64 37.1 125.806C35.9823 127.567 34.7157 129.571 34.2811 130.259C33.8472 130.948 33.2114 131.994 32.8698 132.59L32.2489 133.672ZM33.9442 134.063C33.9442 134.017 34.453 133.373 35.0713 132.634C38.1239 128.984 41.1552 124.906 43.6865 121.049C44.3787 119.995 44.9582 119.115 44.9733 119.096C44.9884 119.078 45.9353 119.414 47.0815 119.842C49.8444 120.875 52.0122 121.548 54.9467 122.284C58.5498 123.186 63.7582 124.088 66.8418 124.347C67.315 124.387 67.5563 124.441 67.4814 124.489C67.3378 124.58 64.2146 125.623 61.9194 126.344C58.2754 127.49 47.1388 130.78 38.0581 133.392C36.3737 133.878 34.9336 134.287 34.8582 134.303C34.6551 134.345 33.9442 134.159 33.9442 134.063ZM63.0465 138.169C62.7652 138.845 62.6605 139.009 62.5143 139.002C62.1579 138.988 57.1676 138.29 54.1475 137.831C48.8605 137.028 40.0049 135.481 37.7695 134.973L37.2499 134.856L40.4194 134.142C47.212 132.613 50.4739 131.792 53.7834 130.778C57.9574 129.5 62.0902 127.907 66.2647 125.967C66.9249 125.66 67.4874 125.425 67.6273 125.394C67.647 125.389 67.6563 125.389 67.6582 125.394C67.746 125.615 64.3043 135.146 63.0465 138.169ZM71.7505 112.315C71.0023 114.964 70.3754 117.036 69.2108 120.708C68.6984 122.33 68.2567 123.652 68.2315 123.646C68.2043 123.639 68.0815 123.615 67.9554 123.592C61.6535 122.453 56.0087 120.861 50.7212 118.738C49.2419 118.142 47.1057 117.196 46.9924 117.086C46.9543 117.049 48.2319 116.447 49.8288 115.751C59.4861 111.536 69.4918 106.738 72.9126 104.68C73.3249 104.434 73.629 104.289 73.6978 104.304C73.7082 104.306 73.7126 104.313 73.7126 104.321C73.7129 104.792 72.6418 109.157 71.7505 112.315ZM73.3356 103.3C70.5193 104.863 61.245 108.721 51.7734 112.275C50.3905 112.794 49.0412 113.302 48.7769 113.406C48.5134 113.511 48.2977 113.583 48.2977 113.562C48.2977 113.541 48.6883 112.789 49.1673 111.892C51.8268 106.921 54.4809 100.879 55.8434 96.6868C55.9819 96.2583 56.105 95.8992 56.1184 95.8835C56.1313 95.8665 56.6516 96.1459 57.2726 96.5045C61.8032 99.1254 68.1251 101.583 73.5166 102.817L74.004 102.927L73.3356 103.3ZM74.7856 82.0129C75.5733 82.3567 75.6637 82.2234 73.8502 83.4568C69.9836 86.0815 65.1752 88.663 59.2744 91.286C58.2458 91.7422 57.374 92.1151 57.3389 92.1151C57.3038 92.1151 57.4187 91.5942 57.592 90.9527C59.0217 85.6629 59.8285 80.3255 59.8507 76.0443C59.8564 74.9965 59.8595 74.4649 59.8855 74.188C60.0766 74.1214 60.2663 74.0548 60.459 73.9874C60.7507 74.1318 61.2151 74.409 61.9414 74.8633C66.319 77.6045 72.2462 80.9045 74.7856 82.0129ZM62.7049 73.2132C66.418 71.9507 70.3885 70.6767 74.5 69.4227C74.8023 70.6567 75.3501 76.1534 75.5053 79.7983C75.5428 80.6753 75.5354 81.2367 75.4833 81.2367C75.3147 81.2367 71.8898 79.2242 69.4605 77.6994C67.3646 76.3837 63.4174 73.7609 62.7049 73.2132ZM75.6336 84.588C75.6295 89.3193 75.1245 95.7986 74.3922 100.525C74.2628 101.356 74.1515 102.04 74.1433 102.048C74.134 102.057 73.5358 101.882 72.815 101.658C69.6319 100.669 66.1797 99.1923 63.0646 97.486C61.0021 96.3556 58.0188 94.5254 58.1021 94.4412C58.1249 94.4182 59.0038 93.9527 60.0552 93.4069C64.2204 91.2455 68.1986 88.9152 71.6578 86.603C72.9546 85.7364 74.8964 84.3322 75.3276 83.953L75.6338 83.6874V84.588H75.6336ZM84.3439 63.2154C74.6285 65.9109 67.1234 68.31 58.3653 71.5285C57.3935 71.886 56.5543 72.1818 56.4967 72.1818C56.3764 72.1818 56.256 72.292 58.441 70.2811C64.0425 65.1265 68.9909 59.4467 72.6878 53.9214L73.4338 52.8032L74.4682 53.4729C76.8398 55.0136 79.6502 57.0854 81.7921 58.8704C82.9921 59.8702 85.3254 61.9595 85.8046 62.4656L86.0609 62.7359L84.3439 63.2154ZM88.196 62.124C88.1752 62.124 87.9046 61.7413 87.592 61.2761C85.2105 57.7179 82.3845 54.5923 79.0128 51.7866C78.3836 51.2632 77.673 50.6889 77.4378 50.5129C77.2003 50.3366 77.0087 50.1743 77.0065 50.1494C77.0046 50.091 80.6056 48.5467 83.3545 47.4284C88.1387 45.4811 94.6786 43.15 99.5711 41.6493C102.152 40.8581 104.894 40.0702 104.933 40.1091C104.977 40.1535 103.569 42.355 102.692 43.6111C101.413 45.4438 99.5585 47.8495 95.3335 53.1626C93.1137 55.9532 90.6104 59.1108 89.7666 60.1797C88.923 61.2478 88.2168 62.124 88.196 62.124ZM123.673 55.9405C114.741 56.6125 103.322 58.5124 92.3283 61.1563C91.5812 61.3353 90.9356 61.4844 90.8939 61.4844C90.8536 61.4844 91.6711 60.6642 92.7107 59.6646C99.167 53.4578 102.111 49.5386 105.577 42.537C106.093 41.4939 106.532 40.5944 106.548 40.5396C106.55 40.536 106.553 40.536 106.559 40.5354C106.636 40.5193 107.148 40.7676 107.765 41.1208C112.919 44.0734 117.97 47.8651 121.942 51.7644C123.071 52.8731 125.836 55.7484 125.794 55.7722C125.783 55.7785 124.829 55.8536 123.673 55.9405Z" fill="#EC4949"/>
</svg>
