<svg width="128" height="141" viewBox="0 0 128 141" fill="none" xmlns="http://www.w3.org/2000/svg">
<path d="M58.1978 1.5058C61.7357 -0.497509 66.2465 -0.506353 69.6959 1.5058L122.516 31.2813C125.819 33.1386 128.031 36.8224 128 40.63V100.331C128.022 104.298 125.594 108.062 122.109 109.884L69.572 139.522C67.7751 140.515 65.745 141.009 63.6928 140.952C61.6405 140.895 59.6408 140.29 57.9015 139.199L42.136 130.089C41.0614 129.448 39.8541 128.939 39.0934 127.9C39.7656 126.998 40.9596 126.883 41.9326 126.485C44.126 125.786 46.1338 124.716 48.1503 123.584C48.6589 123.23 49.2825 123.363 49.7689 123.681L63.2127 131.456C64.1724 132.008 65.1453 131.279 65.9679 130.814L117.554 101.702C118.191 101.393 118.545 100.72 118.492 100.022V40.8954C118.562 40.0994 118.107 39.3741 117.386 39.0513L64.9817 9.54115C64.6797 9.33227 64.3214 9.22001 63.9542 9.21922C63.587 9.21843 63.2282 9.32915 62.9253 9.53673L10.596 39.1088C9.88845 39.4316 9.402 40.148 9.49044 40.944V100.07C9.42853 100.769 9.80001 101.428 10.4412 101.729L24.4246 109.623C27.0515 111.038 30.2753 111.834 33.1675 110.795C34.4332 110.318 35.5228 109.465 36.2902 108.351C37.0577 107.238 37.4664 105.916 37.4616 104.563L37.4749 45.7909C37.413 44.9197 38.2355 44.1988 39.0802 44.2873H45.8021C46.6865 44.2652 47.3809 45.2027 47.2615 46.0783L47.2482 105.222C47.2526 110.476 45.0945 116.19 40.2344 118.768C34.2466 121.864 26.8436 121.213 20.9266 118.237L5.89068 109.923C2.35283 108.154 -0.0219585 104.334 0.000153107 100.371V40.6698C0.0148632 38.7294 0.5483 36.8283 1.54516 35.1635C2.54203 33.4987 3.96603 32.1308 5.66956 31.2017L58.1978 1.5058ZM73.4283 42.8898C81.0656 42.4476 89.2425 42.598 96.1148 46.3614C101.435 49.2447 104.385 55.2944 104.482 61.2115C104.331 62.0075 103.5 62.4497 102.739 62.3923C100.528 62.3878 98.3083 62.4232 96.0882 62.379C95.1463 62.4144 94.6023 61.5476 94.4829 60.7162C93.8461 57.8859 92.3027 55.0866 89.6405 53.7201C85.5543 51.6726 80.8136 51.7743 76.3559 51.8185C73.101 51.9954 69.603 52.274 66.8479 54.1844C64.7252 55.635 64.0884 58.6068 64.8446 60.9152C65.5522 62.609 67.5112 63.1529 69.1077 63.657C78.315 66.0628 88.0662 65.8682 97.101 68.9948C100.838 70.2861 104.495 72.798 105.778 76.7117C107.449 81.9566 106.719 88.2274 102.991 92.4375C99.9666 95.9046 95.562 97.7442 91.1618 98.8145C85.3111 100.119 79.2436 100.15 73.3045 99.5662C67.7191 98.9294 61.9082 97.4612 57.5964 93.658C53.9082 90.4563 52.1127 85.4679 52.2896 80.6564C52.3338 79.8427 53.1431 79.2767 53.9259 79.343H60.5594C61.4527 79.2811 62.1072 80.0506 62.1514 80.8908C62.5627 83.5442 63.5754 86.4187 65.928 87.9665C70.4653 90.8941 76.1569 90.6907 81.3487 90.7747C85.6516 90.5845 90.4807 90.527 93.9965 87.6791C95.8539 86.0561 96.3978 83.3452 95.8981 81.0102C95.3541 79.0379 93.2447 78.1224 91.4758 77.4723C82.3879 74.5978 72.5261 75.6415 63.5267 72.3867C59.8739 71.0954 56.3405 68.6543 54.9386 64.8997C52.9795 59.5929 53.8772 53.0169 58.0033 48.9484C61.9833 44.902 67.8208 43.3409 73.3487 42.7837L73.4283 42.8898Z" fill="#8CC84B"/>
</svg>
