<svg width="128" height="130" viewBox="0 0 128 130" fill="none" xmlns="http://www.w3.org/2000/svg">
<path d="M63.2379 0.00105853C57.9599 0.0255831 52.9195 0.475719 48.4845 1.26049C35.4196 3.56863 33.0475 8.39978 33.0475 17.3092V29.0759H63.9216V32.9981H33.0475H21.4607C12.4879 32.9981 4.63099 38.3914 2.17346 48.6511C-0.661277 60.4111 -0.787013 67.7495 2.17346 80.0289C4.3681 89.1692 9.60919 95.6818 18.582 95.6818H29.1972V81.5762C29.1972 71.3857 38.0143 62.3969 48.4845 62.3969H79.3226C87.9068 62.3969 94.7596 55.3289 94.7596 46.7079V17.3092C94.7596 8.94219 87.7011 2.65691 79.3226 1.26049C74.0189 0.377621 68.5158 -0.023466 63.2379 0.00105853ZM46.5414 9.46478C49.7305 9.46478 52.3348 12.1116 52.3348 15.3661C52.3348 18.6091 49.7305 21.2315 46.5414 21.2315C43.3409 21.2315 40.748 18.6091 40.748 15.3661C40.748 12.1116 43.3409 9.46478 46.5414 9.46478Z" fill="#5A9FD4"/>
<path d="M98.6097 32.9981V46.7079C98.6097 57.337 89.5984 66.2831 79.3224 66.2831H48.4844C40.0373 66.2831 33.0474 73.5126 33.0474 81.972V111.371C33.0474 119.738 40.3231 124.659 48.4844 127.06C58.2574 129.933 67.6292 130.453 79.3224 127.06C87.0951 124.809 94.7595 120.28 94.7595 111.371V99.604H63.9214V95.6818H94.7595H110.197C119.169 95.6818 122.513 89.423 125.634 80.0289C128.857 70.3577 128.72 61.0574 125.634 48.6511C123.416 39.7185 119.181 32.9981 110.197 32.9981H98.6097ZM81.2656 107.448C84.4661 107.448 87.059 110.071 87.059 113.314C87.059 116.568 84.4661 119.215 81.2656 119.215C78.0765 119.215 75.4722 116.568 75.4722 113.314C75.4722 110.071 78.0765 107.448 81.2656 107.448Z" fill="url(#paint0_linear_3_85)"/>
<defs>
<linearGradient id="paint0_linear_3_85" x1="80.5236" y1="112.325" x2="54.9826" y2="76.534" gradientUnits="userSpaceOnUse">
<stop stop-color="#FFD43B"/>
<stop offset="1" stop-color="#FFE873"/>
</linearGradient>
</defs>
</svg>
