<svg width="128" height="128" viewBox="0 0 128 128" fill="none" xmlns="http://www.w3.org/2000/svg">
<rect width="128" height="128" rx="8" fill="#3178C6"/>
<path d="M104.994 83.5909C104.843 81.9242 104.169 80.6288 102.972 79.7045C101.79 78.7652 100.1 78.2955 97.9034 78.2955C96.4489 78.2955 95.2367 78.4848 94.267 78.8636C93.2974 79.2424 92.5701 79.7652 92.0852 80.4318C91.6004 81.0833 91.3504 81.8333 91.3352 82.6818C91.3049 83.3788 91.4413 83.9924 91.7443 84.5227C92.0625 85.053 92.517 85.5227 93.108 85.9318C93.714 86.3258 94.4413 86.6742 95.2898 86.9773C96.1383 87.2803 97.0928 87.5455 98.1534 87.7727L102.153 88.6818C104.456 89.1818 106.487 89.8485 108.244 90.6818C110.017 91.5152 111.502 92.5076 112.699 93.6591C113.911 94.8106 114.828 96.1364 115.449 97.6364C116.07 99.1364 116.388 100.818 116.403 102.682C116.388 105.621 115.646 108.144 114.176 110.25C112.706 112.356 110.593 113.97 107.835 115.091C105.093 116.212 101.782 116.773 97.9034 116.773C94.0095 116.773 90.6155 116.189 87.7216 115.023C84.8277 113.856 82.5777 112.083 80.9716 109.705C79.3655 107.326 78.5398 104.318 78.4943 100.682H89.267C89.358 102.182 89.7595 103.432 90.4716 104.432C91.1837 105.432 92.161 106.189 93.4034 106.705C94.661 107.22 96.1155 107.477 97.767 107.477C99.2822 107.477 100.57 107.273 101.631 106.864C102.706 106.455 103.532 105.886 104.108 105.159C104.684 104.432 104.979 103.598 104.994 102.659C104.979 101.78 104.706 101.03 104.176 100.409C103.646 99.7727 102.828 99.2273 101.722 98.7727C100.631 98.303 99.2367 97.8712 97.5398 97.4773L92.6761 96.3409C88.6458 95.4167 85.4716 93.9242 83.1534 91.8636C80.8352 89.7879 79.6837 86.9848 79.6989 83.4545C79.6837 80.5758 80.4564 78.053 82.017 75.8864C83.5777 73.7197 85.7367 72.0303 88.4943 70.8182C91.2519 69.6061 94.3958 69 97.9261 69C101.532 69 104.661 69.6136 107.313 70.8409C109.979 72.053 112.047 73.7576 113.517 75.9545C114.987 78.1515 115.737 80.697 115.767 83.5909H104.994Z" fill="white"/>
<path d="M35 78.7727V69.6364H74.3409V78.7727H60.2273V116.182H49.1364V78.7727H35Z" fill="white"/>
</svg>
