<svg width="128" height="128" viewBox="0 0 128 128" fill="none" xmlns="http://www.w3.org/2000/svg">
<path d="M64.8786 126.243C99.7396 126.243 128 97.9825 128 63.1215C128 28.2604 99.7396 0 64.8786 0C30.0175 0 1.75708 28.2604 1.75708 63.1215C1.75708 97.9825 30.0175 126.243 64.8786 126.243Z" fill="#5C2D91"/>
<path opacity="0.1" d="M21.1274 17.7529C14.7106 23.471 9.52923 30.4392 5.90077 38.2306C2.27231 46.0219 0.273239 54.4722 0.0261018 63.0635C-0.221036 71.6548 1.28896 80.206 4.46354 88.193C7.63812 96.1801 12.4104 103.435 18.4879 109.512C24.5653 115.59 31.8199 120.362 39.8069 123.536C47.794 126.711 56.3452 128.221 64.9365 127.974C73.5278 127.727 81.9781 125.728 89.7694 122.099C97.5608 118.471 104.529 113.289 110.247 106.873L21.1274 17.7529Z" fill="white"/>
<path d="M16.3539 81.3676C15.9857 81.3734 15.6203 81.3027 15.2808 81.1601C14.9413 81.0175 14.635 80.8061 14.3814 80.5391C14.1208 80.2816 13.9148 79.9742 13.7759 79.6353C13.6369 79.2964 13.5678 78.9329 13.5726 78.5666C13.57 78.2006 13.6401 77.8377 13.779 77.4991C13.9178 77.1605 14.1226 76.8528 14.3814 76.594C14.6325 76.3225 14.9379 76.1067 15.2776 75.9606C15.6174 75.8145 15.9841 75.7413 16.3539 75.7458C16.7232 75.7449 17.0888 75.8197 17.428 75.9656C17.7673 76.1115 18.0731 76.3254 18.3265 76.594C18.5897 76.8505 18.7987 77.1573 18.941 77.4961C19.0834 77.835 19.1561 78.199 19.1549 78.5666C19.1584 78.9344 19.0867 79.2991 18.9442 79.6383C18.8018 79.9775 18.5915 80.284 18.3265 80.5391C18.0707 80.8033 17.764 81.0129 17.425 81.1552C17.086 81.2976 16.7216 81.3699 16.3539 81.3676ZM55.5484 80.8744H50.3803L31.8976 52.1936C31.438 51.4865 31.0545 50.7327 30.7535 49.9449H30.5957C30.7714 51.5825 30.8373 53.2299 30.793 54.8763V80.8744H26.5914V44.9149H32.0554L50.045 73.0829C50.7946 74.2533 51.2811 75.0554 51.5047 75.4894H51.6033C51.3952 73.7353 51.3096 71.9689 51.3469 70.203V44.9149H55.5484V80.8744ZM83.9925 80.8744H64.8786V44.9149H83.1049V48.7219H69.1787V60.6756H82.1581V64.4628H69.1787V76.9293H84.0123L83.9925 80.8744ZM112.22 48.7219H101.765V80.8744H97.5636V48.7219H87.2275V44.9149H112.22V48.7219Z" fill="white"/>
</svg>
