<svg width="128" height="77" viewBox="0 0 128 77" fill="none" xmlns="http://www.w3.org/2000/svg">
<path d="M36.0717 27.7992C36.0717 29.3743 36.242 30.6514 36.54 31.588C36.8806 32.5246 37.3063 33.5463 37.9023 34.6532C38.1152 34.9937 38.2003 35.3343 38.2003 35.6323C38.2003 36.058 37.9449 36.4837 37.3914 36.9094L34.7094 38.6974C34.3263 38.9529 33.9432 39.0806 33.6026 39.0806C33.1769 39.0806 32.7512 38.8677 32.3254 38.4846C31.7294 37.846 31.2186 37.1649 30.7929 36.4837C30.3672 35.76 29.9414 34.9512 29.4732 33.972C26.1526 37.8886 21.9806 39.8469 16.9571 39.8469C13.3811 39.8469 10.5289 38.8252 8.44286 36.7817C6.35686 34.7383 5.29257 32.0137 5.29257 28.608C5.29257 24.9894 6.56972 22.052 9.16657 19.8383C11.7634 17.6246 15.2117 16.5177 19.5966 16.5177C21.044 16.5177 22.534 16.6454 24.1092 16.8583C25.6843 17.0712 27.302 17.4117 29.0049 17.7949V14.6872C29.0049 11.4517 28.3237 9.19543 27.004 7.87572C25.6417 6.556 23.3429 5.91743 20.0649 5.91743C18.5749 5.91743 17.0423 6.08772 15.4671 6.47086C13.892 6.854 12.3594 7.32229 10.8694 7.91829C10.1883 8.21629 9.67743 8.38658 9.37943 8.47172C9.08143 8.55686 8.86857 8.59943 8.69829 8.59943C8.10229 8.59943 7.80429 8.17372 7.80429 7.27972V5.19372C7.80429 4.51257 7.88943 4.00172 8.10229 3.70372C8.31515 3.40572 8.69829 3.10772 9.29429 2.80972C10.7843 2.04343 12.5723 1.40486 14.6583 0.894C16.7443 0.340572 18.958 0.0851429 21.2994 0.0851429C26.3654 0.0851429 30.0692 1.23457 32.4532 3.53343C34.7946 5.83229 35.9866 9.32315 35.9866 14.006V27.7992H36.0717ZM18.7877 34.27C20.1926 34.27 21.64 34.0146 23.1726 33.5037C24.7052 32.9929 26.0674 32.0563 27.2169 30.7792C27.898 29.9703 28.4089 29.0763 28.6643 28.0546C28.9197 27.0329 29.09 25.7983 29.09 24.3509V22.5629C27.8554 22.2649 26.5357 22.0094 25.1734 21.8392C23.8112 21.6689 22.4914 21.5837 21.1717 21.5837C18.3194 21.5837 16.2334 22.1372 14.8286 23.2866C13.4237 24.436 12.7426 26.0537 12.7426 28.1823C12.7426 30.1832 13.2534 31.6732 14.3177 32.6949C15.3394 33.7592 16.8294 34.27 18.7877 34.27ZM52.9726 38.8677C52.2063 38.8677 51.6955 38.74 51.3549 38.442C51.0143 38.1866 50.7163 37.5906 50.4609 36.7817L40.4566 3.874C40.2012 3.02257 40.0735 2.46914 40.0735 2.17114C40.0735 1.49 40.414 1.10686 41.0952 1.10686H45.2672C46.076 1.10686 46.6295 1.23457 46.9275 1.53257C47.268 1.788 47.5235 2.384 47.7789 3.19286L54.9309 31.3752L61.572 3.19286C61.7849 2.34143 62.0403 1.788 62.3809 1.53257C62.7215 1.27714 63.3175 1.10686 64.0837 1.10686H67.4895C68.2983 1.10686 68.8517 1.23457 69.1923 1.53257C69.5329 1.788 69.8309 2.384 70.0012 3.19286L76.7275 31.7157L84.0923 3.19286C84.3478 2.34143 84.6458 1.788 84.9438 1.53257C85.2843 1.27714 85.8378 1.10686 86.604 1.10686H90.5632C91.2443 1.10686 91.6275 1.44743 91.6275 2.17114C91.6275 2.384 91.5849 2.59686 91.5423 2.85229C91.4998 3.10772 91.4146 3.44829 91.2443 3.91657L80.9846 36.8243C80.7292 37.6757 80.4312 38.2292 80.0906 38.4846C79.75 38.74 79.1966 38.9103 78.4729 38.9103H74.8117C74.0029 38.9103 73.4495 38.7826 73.1089 38.4846C72.7683 38.1866 72.4703 37.6332 72.3 36.7817L65.7015 9.32315L59.1455 36.7392C58.9326 37.5906 58.6772 38.144 58.3366 38.442C57.996 38.74 57.4 38.8677 56.6337 38.8677H52.9726ZM107.677 40.0172C105.463 40.0172 103.249 39.7617 101.121 39.2509C98.9923 38.74 97.332 38.1866 96.2252 37.548C95.544 37.1649 95.0758 36.7392 94.9055 36.356C94.7352 35.9729 94.65 35.5472 94.65 35.164V32.9929C94.65 32.0989 94.9906 31.6732 95.6292 31.6732C95.8846 31.6732 96.1401 31.7157 96.3955 31.8009C96.6509 31.886 97.0341 32.0563 97.4598 32.2266C98.9072 32.8652 100.482 33.376 102.143 33.7166C103.845 34.0572 105.506 34.2274 107.209 34.2274C109.891 34.2274 111.977 33.7592 113.424 32.8226C114.871 31.886 115.638 30.5237 115.638 28.7783C115.638 27.5863 115.255 26.6072 114.488 25.7983C113.722 24.9894 112.275 24.2657 110.189 23.5846L104.016 21.6689C100.908 20.6897 98.6092 19.2423 97.2043 17.3266C95.7995 15.4534 95.0758 13.3674 95.0758 11.1537C95.0758 9.36572 95.4589 7.79058 96.2252 6.42829C96.9915 5.066 98.0132 3.874 99.2903 2.93743C100.567 1.95829 102.015 1.23457 103.718 0.723715C105.421 0.212857 107.209 0 109.082 0C110.018 0 110.997 0.0425714 111.934 0.170286C112.913 0.298 113.807 0.468286 114.701 0.638572C115.553 0.851429 116.361 1.06429 117.128 1.31971C117.894 1.57514 118.49 1.83057 118.916 2.086C119.512 2.42657 119.937 2.76714 120.193 3.15029C120.448 3.49086 120.576 3.95914 120.576 4.55514V6.556C120.576 7.45 120.235 7.91829 119.597 7.91829C119.256 7.91829 118.703 7.748 117.979 7.40743C115.553 6.30057 112.828 5.74715 109.805 5.74715C107.379 5.74715 105.463 6.13029 104.143 6.93915C102.824 7.748 102.143 8.98258 102.143 10.728C102.143 11.92 102.568 12.9417 103.42 13.7506C104.271 14.5594 105.846 15.3683 108.103 16.092L114.148 18.0077C117.213 18.9869 119.427 20.3492 120.746 22.0946C122.066 23.84 122.705 25.8409 122.705 28.0546C122.705 29.8852 122.321 31.5454 121.598 32.9929C120.831 34.4403 119.81 35.7174 118.49 36.7392C117.17 37.8034 115.595 38.5697 113.765 39.1232C111.849 39.7192 109.848 40.0172 107.677 40.0172Z" fill="#252F3E"/>
<path fill-rule="evenodd" clip-rule="evenodd" d="M115.723 60.7067C101.717 71.0516 81.3677 76.5433 63.8708 76.5433C39.3497 76.5433 17.2551 67.4756 0.567059 52.4053C-0.752656 51.2133 0.439345 49.5956 2.01449 50.5322C20.0648 61.0047 42.3297 67.3479 65.3608 67.3479C80.8994 67.3479 97.9706 64.1125 113.679 57.4713C116.021 56.407 118.022 59.0039 115.723 60.7067Z" fill="#FF9900"/>
<path fill-rule="evenodd" clip-rule="evenodd" d="M121.555 54.0656C119.767 51.7668 109.72 52.9588 105.165 53.5122C103.803 53.6825 103.59 52.4905 104.825 51.5965C112.828 45.977 125.983 47.5948 127.515 49.4679C129.048 51.3836 127.089 64.5382 119.597 70.8388C118.447 71.8179 117.341 71.3071 117.851 70.0299C119.554 65.8153 123.343 56.3219 121.555 54.0656Z" fill="#FF9900"/>
</svg>
