<svg width="128" height="128" viewBox="0 0 128 128" fill="none" xmlns="http://www.w3.org/2000/svg">
<rect width="128" height="128" rx="8" fill="#663399"/>
<path d="M110.52 98.3232C110.444 97.4867 110.106 96.8365 109.505 96.3726C108.912 95.9011 108.064 95.6654 106.961 95.6654C106.231 95.6654 105.623 95.7605 105.136 95.9506C104.649 96.1407 104.284 96.403 104.041 96.7376C103.798 97.0646 103.672 97.4411 103.664 97.8669C103.649 98.2167 103.718 98.5247 103.87 98.7909C104.029 99.057 104.258 99.2928 104.554 99.4981C104.858 99.6958 105.223 99.8707 105.649 100.023C106.075 100.175 106.554 100.308 107.087 100.422L109.094 100.878C110.25 101.129 111.269 101.464 112.151 101.882C113.041 102.3 113.786 102.798 114.387 103.376C114.995 103.954 115.455 104.62 115.767 105.373C116.079 106.125 116.239 106.97 116.246 107.905C116.239 109.38 115.866 110.646 115.128 111.703C114.391 112.76 113.33 113.57 111.946 114.133C110.569 114.696 108.908 114.977 106.961 114.977C105.007 114.977 103.303 114.684 101.851 114.099C100.398 113.513 99.269 112.624 98.463 111.43C97.6569 110.236 97.2424 108.726 97.2196 106.901H102.626C102.672 107.654 102.874 108.281 103.231 108.783C103.588 109.285 104.079 109.665 104.702 109.924C105.334 110.183 106.064 110.312 106.893 110.312C107.653 110.312 108.299 110.209 108.832 110.004C109.372 109.798 109.786 109.513 110.075 109.148C110.364 108.783 110.512 108.365 110.52 107.894C110.512 107.452 110.375 107.076 110.109 106.764C109.843 106.445 109.433 106.171 108.877 105.943C108.33 105.707 107.63 105.49 106.779 105.293L104.337 104.722C102.315 104.259 100.722 103.51 99.558 102.475C98.3945 101.433 97.8166 100.027 97.8242 98.2548C97.8166 96.8099 98.2044 95.5437 98.9877 94.4563C99.7709 93.3688 100.855 92.5209 102.239 91.9125C103.623 91.3042 105.201 91 106.972 91C108.782 91 110.353 91.308 111.683 91.924C113.022 92.5323 114.06 93.3878 114.798 94.4905C115.535 95.5932 115.912 96.8707 115.927 98.3232H110.52Z" fill="white"/>
<path d="M89.3147 98.3232C89.2386 97.4867 88.9002 96.8365 88.2994 96.3726C87.7063 95.9011 86.8584 95.6654 85.7557 95.6654C85.0257 95.6654 84.4173 95.7605 83.9306 95.9506C83.4439 96.1407 83.0789 96.403 82.8356 96.7376C82.5922 97.0646 82.4668 97.4411 82.4591 97.8669C82.4439 98.2167 82.5124 98.5247 82.6645 98.7909C82.8242 99.057 83.0523 99.2928 83.3489 99.4981C83.6531 99.6958 84.0181 99.8707 84.4439 100.023C84.8698 100.175 85.3489 100.308 85.8812 100.422L87.8888 100.878C89.0447 101.129 90.0637 101.464 90.9458 101.882C91.8356 102.3 92.5808 102.798 93.1816 103.376C93.7899 103.954 94.25 104.62 94.5618 105.373C94.8736 106.125 95.0333 106.97 95.0409 107.905C95.0333 109.38 94.6607 110.646 93.923 111.703C93.1854 112.76 92.1245 113.57 90.7405 114.133C89.3641 114.696 87.7025 114.977 85.7557 114.977C83.8014 114.977 82.0979 114.684 80.6455 114.099C79.193 113.513 78.0637 112.624 77.2576 111.43C76.4515 110.236 76.0371 108.726 76.0143 106.901H81.4211C81.4668 107.654 81.6683 108.281 82.0257 108.783C82.3831 109.285 82.8736 109.665 83.4972 109.924C84.1284 110.183 84.8584 110.312 85.6873 110.312C86.4477 110.312 87.0941 110.209 87.6264 110.004C88.1664 109.798 88.5808 109.513 88.8698 109.148C89.1588 108.783 89.3071 108.365 89.3147 107.894C89.3071 107.452 89.1702 107.076 88.904 106.764C88.6379 106.445 88.2272 106.171 87.6721 105.943C87.1245 105.707 86.4249 105.49 85.5732 105.293L83.1321 104.722C81.1093 104.259 79.5162 103.51 78.3527 102.475C77.1892 101.433 76.6112 100.027 76.6188 98.2548C76.6112 96.8099 76.9991 95.5437 77.7823 94.4563C78.5656 93.3688 79.6493 92.5209 81.0333 91.9125C82.4173 91.3042 83.9953 91 85.7671 91C87.577 91 89.1474 91.308 90.4782 91.924C91.8166 92.5323 92.8546 93.3878 93.5922 94.4905C94.3299 95.5932 94.7063 96.8707 94.7215 98.3232H89.3147Z" fill="white"/>
<path d="M73.4563 99.7833H67.7529C67.6768 99.1977 67.5209 98.6692 67.2852 98.1977C67.0494 97.7262 66.7376 97.3232 66.3498 96.9886C65.962 96.654 65.5019 96.3992 64.9696 96.2243C64.4449 96.0418 63.8631 95.9506 63.2243 95.9506C62.0913 95.9506 61.1141 96.2281 60.2928 96.7833C59.4791 97.3384 58.8517 98.1407 58.4106 99.1901C57.9772 100.24 57.7605 101.51 57.7605 103C57.7605 104.551 57.981 105.852 58.4221 106.901C58.8707 107.943 59.4981 108.73 60.3042 109.262C61.1179 109.787 62.0798 110.049 63.1901 110.049C63.8137 110.049 64.3802 109.97 64.8897 109.81C65.4068 109.65 65.8593 109.418 66.2471 109.114C66.6426 108.802 66.9658 108.426 67.2167 107.985C67.4753 107.536 67.654 107.03 67.7529 106.468L73.4563 106.502C73.3574 107.536 73.057 108.555 72.5551 109.559C72.0608 110.563 71.3802 111.479 70.5133 112.308C69.6464 113.129 68.5894 113.783 67.3422 114.27C66.1027 114.757 64.6806 115 63.076 115C60.962 115 59.0684 114.536 57.3954 113.608C55.73 112.673 54.4144 111.312 53.4487 109.525C52.4829 107.738 52 105.563 52 103C52 100.43 52.4905 98.251 53.4715 96.4639C54.4525 94.6768 55.7795 93.3194 57.4525 92.3916C59.1255 91.4639 61 91 63.076 91C64.4905 91 65.7985 91.1977 67 91.5932C68.2015 91.981 69.2586 92.5513 70.1711 93.3042C71.0836 94.0494 71.8251 94.9658 72.3954 96.0532C72.9658 97.1407 73.3194 98.384 73.4563 99.7833Z" fill="white"/>
</svg>
