<svg width="128" height="125" viewBox="0 0 128 125" fill="none" xmlns="http://www.w3.org/2000/svg">
<path d="M63.5563 0.0109475C62.4247 0.0679498 61.316 0.348508 60.2953 0.836163L15.7962 22.0983C14.6444 22.6483 13.6324 23.4487 12.8353 24.4398C12.0383 25.431 11.4766 26.5876 11.192 27.8236L0.213788 75.5837C-0.0397152 76.6841 -0.0680859 77.8238 0.130356 78.9352C0.328797 80.0467 0.750018 81.1074 1.36909 82.0546C1.5192 82.2861 1.68064 82.5102 1.85284 82.7261L32.6533 121.022C33.4506 122.013 34.4627 122.813 35.6145 123.363C36.7662 123.912 38.0281 124.198 39.3063 124.198L88.6998 124.186C89.9775 124.187 91.2391 123.903 92.3908 123.354C93.5426 122.805 94.5549 122.006 95.3527 121.016L126.142 82.7147C126.94 81.7233 127.502 80.5663 127.786 79.3298C128.071 78.0932 128.071 76.8089 127.787 75.5723L116.791 27.8122C116.507 26.5762 115.945 25.4196 115.148 24.4285C114.351 23.4373 113.339 22.637 112.187 22.0869L67.6824 0.836163C66.3984 0.222731 64.9796 -0.0610211 63.5563 0.0109475Z" fill="#326CE5"/>
<path d="M63.9972 16.2643C62.5262 16.2644 61.3336 17.5894 61.3337 19.2237C61.3337 19.2488 61.3389 19.2727 61.3394 19.2977C61.3372 19.5197 61.3265 19.7873 61.3337 19.9806C61.3688 20.9232 61.5743 21.6447 61.698 22.5132C61.922 24.372 62.1098 25.9128 61.9939 27.345C61.8812 27.885 61.4835 28.3789 61.1289 28.7222L61.0663 29.8491C59.4678 29.9815 57.8587 30.224 56.2515 30.5889C49.3357 32.1592 43.3813 35.7215 38.848 40.5313C38.5538 40.3307 38.0392 39.9615 37.8862 39.8484C37.4107 39.9126 36.93 40.0594 36.304 39.6948C35.1121 38.8924 34.0265 37.7849 32.7129 36.4508C32.111 35.8126 31.6752 35.2049 30.9601 34.5898C30.7977 34.4501 30.5498 34.2612 30.3682 34.1174C29.8091 33.6717 29.1497 33.4392 28.5129 33.4174C27.6941 33.3894 26.9059 33.7095 26.3901 34.3565C25.4731 35.5066 25.7667 37.2645 27.0446 38.2833C27.0575 38.2937 27.0713 38.3017 27.0844 38.3118C27.26 38.4542 27.475 38.6365 27.6364 38.7557C28.3953 39.316 29.0885 39.6028 29.8446 40.0476C31.4376 41.0314 32.7582 41.8471 33.8056 42.8306C34.2147 43.2666 34.2862 44.0349 34.3406 44.3672L35.1943 45.1298C30.6243 52.0072 28.5093 60.5022 29.7592 69.1578L28.6438 69.4822C28.3498 69.8619 27.9343 70.4592 27.4998 70.6375C26.1294 71.0692 24.587 71.2277 22.725 71.4229C21.8508 71.4956 21.0964 71.4522 20.1696 71.6278C19.9657 71.6664 19.6814 71.7405 19.4582 71.7928C19.4505 71.7944 19.4432 71.7968 19.4355 71.7985C19.4233 71.8013 19.4073 71.8072 19.3956 71.8099C17.8258 72.1892 16.8173 73.6322 17.1419 75.0538C17.4667 76.4759 19.0001 77.3406 20.5794 77.0002C20.5908 76.9976 20.6074 76.9972 20.6192 76.9945C20.6371 76.9905 20.6528 76.9818 20.6705 76.9775C20.8906 76.9291 21.1665 76.8754 21.3591 76.8238C22.2703 76.5798 22.9302 76.2214 23.7494 75.9075C25.5117 75.2755 26.9713 74.7474 28.3934 74.5417C28.9873 74.4951 29.613 74.9081 29.9243 75.0823L31.0853 74.8831C33.757 83.1663 39.3559 89.8613 46.4457 94.0623L45.9619 95.2233C46.1363 95.6741 46.3286 96.2841 46.1987 96.7293C45.6818 98.0699 44.7962 99.4849 43.7879 101.062C43.2997 101.791 42.8 102.357 42.3594 103.191C42.254 103.39 42.1197 103.697 42.018 103.908C41.3334 105.373 41.8355 107.06 43.1505 107.693C44.4737 108.33 46.1162 107.658 46.827 106.19C46.828 106.188 46.8317 106.187 46.8327 106.184C46.8334 106.183 46.832 106.18 46.8327 106.179C46.9339 105.971 47.0773 105.697 47.1628 105.502C47.5401 104.637 47.6657 103.896 47.9311 103.06C48.6358 101.29 49.023 99.4324 49.9931 98.2751C50.2587 97.9581 50.6918 97.8363 51.1409 97.716L51.7441 96.6233C57.9249 98.9957 64.8432 99.6323 71.7542 98.0632C73.3308 97.7052 74.8528 97.2419 76.3242 96.6859C76.4938 96.9867 76.8088 97.5648 76.8933 97.7103C77.3496 97.8588 77.8477 97.9355 78.2535 98.5356C78.9793 99.7756 79.4757 101.243 80.0804 103.014C80.3458 103.851 80.4769 104.592 80.8544 105.456C80.9404 105.653 81.0831 105.93 81.1844 106.139C81.8938 107.611 83.5414 108.285 84.8666 107.647C86.1814 107.014 86.6841 105.327 85.9992 103.862C85.8974 103.652 85.7574 103.345 85.652 103.145C85.2114 102.311 84.7118 101.751 84.2235 101.023C83.2151 99.4451 82.3787 98.1346 81.8617 96.7941C81.6455 96.1026 81.8982 95.6726 82.0666 95.2233C81.9657 95.1077 81.7499 94.4548 81.6227 94.1477C88.9906 89.7972 94.4252 82.8526 96.9774 74.8319C97.322 74.8861 97.921 74.9921 98.1156 75.0311C98.5162 74.7669 98.8845 74.4222 99.6067 74.4791C101.029 74.6847 102.488 75.213 104.251 75.8449C105.07 76.1587 105.73 76.523 106.641 76.7669C106.834 76.8185 107.109 76.8666 107.33 76.9149C107.347 76.9192 107.363 76.9279 107.381 76.9319C107.393 76.9346 107.409 76.935 107.421 76.9376C109 77.2776 110.534 76.4134 110.858 74.9913C111.182 73.5695 110.174 72.1262 108.604 71.7473C108.376 71.6954 108.052 71.6072 107.83 71.5652C106.904 71.3897 106.149 71.4329 105.275 71.3603C103.413 71.1652 101.871 71.0065 100.5 70.5749C99.9414 70.3582 99.5439 69.6933 99.3506 69.4196L98.275 69.1066C98.8327 65.0719 98.6823 60.8729 97.7172 56.6714C96.7432 52.4309 95.0218 48.5525 92.7261 45.1355C93.002 44.8847 93.5231 44.4232 93.6708 44.2875C93.714 43.8096 93.6769 43.3085 94.1716 42.7794C95.2191 41.7958 96.5398 40.9802 98.1327 39.9964C98.8888 39.5516 99.5877 39.2648 100.347 38.7045C100.518 38.5778 100.752 38.3771 100.933 38.2321C102.21 37.2129 102.504 35.4551 101.587 34.3052C100.67 33.1553 98.8924 33.047 97.6148 34.0662C97.4329 34.2102 97.1862 34.3981 97.0229 34.5386C96.3078 35.1538 95.8662 35.7614 95.2643 36.3996C93.9508 37.7338 92.8651 38.8468 91.6732 39.6492C91.1567 39.9499 90.4002 39.8459 90.0569 39.8256L89.0439 40.5484C83.2674 34.4911 75.4025 30.6184 66.9338 29.8661C66.9101 29.5112 66.8791 28.8697 66.8712 28.6767C66.5245 28.3449 66.1057 28.0617 66.0005 27.345C65.8846 25.9128 66.0781 24.372 66.3021 22.5132C66.4258 21.6447 66.6313 20.9232 66.6663 19.9806C66.6743 19.7663 66.6615 19.4554 66.6607 19.2237C66.6605 17.5893 65.4681 16.2641 63.9972 16.2643ZM60.6622 36.9232L59.8711 50.8949L59.8142 50.9234C59.7611 52.1733 58.7324 53.1714 57.4694 53.1714C56.9521 53.1714 56.4745 53.0053 56.0865 52.7218L56.0637 52.7332L44.6074 44.6119C48.1284 41.1496 52.632 38.591 57.8223 37.4126C58.7704 37.1973 59.7181 37.0376 60.6622 36.9232ZM67.3379 36.9232C73.3976 37.6684 79.0016 40.4123 83.2959 44.6176L71.9136 52.6876L71.8737 52.6706C70.8635 53.4085 69.44 53.2254 68.6526 52.2381C68.33 51.8336 68.1607 51.358 68.1403 50.8779L68.129 50.8722L67.3379 36.9232ZM40.4529 49.8307L50.9132 59.1869L50.9019 59.2439C51.846 60.0646 51.9853 61.489 51.1978 62.4764C50.8752 62.8809 50.4435 63.1522 49.9799 63.2789L49.9685 63.3244L36.5602 67.1944C35.8777 60.9541 37.3485 54.8881 40.4529 49.8307ZM87.4675 49.8364C89.0217 52.3555 90.1986 55.1691 90.8993 58.2194C91.5915 61.2332 91.7652 64.2415 91.4798 67.1489L78.0031 63.2675L77.9917 63.2106C76.7849 62.8807 76.0433 61.6532 76.3242 60.4219C76.4393 59.9175 76.7071 59.4908 77.0698 59.1755L77.0641 59.1471L87.4675 49.8364ZM61.8516 59.9097H66.1371L68.8005 63.239L67.8444 67.3936L63.9972 69.2432L60.1386 67.3879L59.1825 63.2333L61.8516 59.9097ZM75.5901 71.3034C75.7722 71.2942 75.9535 71.3106 76.1307 71.3432L76.1535 71.3148L90.0228 73.6595C87.993 79.3622 84.109 84.3025 78.9194 87.6085L73.5356 74.6042L73.5526 74.5815C73.0581 73.4323 73.553 72.0847 74.6909 71.5367C74.9822 71.3964 75.2865 71.3187 75.5901 71.3034ZM52.2962 71.3603C53.3546 71.3751 54.304 72.1098 54.5499 73.1872C54.665 73.6915 54.609 74.1913 54.419 74.6327L54.4588 74.6839L49.1319 87.5573C44.1515 84.3614 40.1846 79.5762 38.0626 73.7051L51.8124 71.3717L51.8352 71.4001C51.989 71.3718 52.145 71.3582 52.2962 71.3603ZM63.9118 77.0002C64.2805 76.9867 64.6546 77.0623 65.0102 77.2336C65.4763 77.458 65.8364 77.8115 66.0631 78.2352H66.1143L72.8925 90.4826C72.0128 90.7775 71.1084 91.0295 70.1835 91.2395C64.9996 92.4165 59.8322 92.0599 55.1531 90.4655L61.9142 78.2409H61.9256C62.3313 77.4825 63.1007 77.03 63.9118 77.0002Z" fill="white"/>
</svg>
