<svg width="60" height="128" viewBox="0 0 60 128" fill="none" xmlns="http://www.w3.org/2000/svg">
<path d="M41.0013 14.2665C35.6292 7.89262 31.0032 1.41918 30.0581 0.0746937C29.9586 -0.0248979 29.8093 -0.0248979 29.7099 0.0746937C28.7647 1.41918 24.1388 7.89262 18.7666 14.2665C-27.3441 73.075 26.029 112.763 26.029 112.763L26.4766 113.061C26.8745 119.186 27.8694 128 27.8694 128H29.8591H31.8487C31.8487 128 32.8436 119.236 33.2416 113.061L33.6892 112.713C33.7389 112.763 87.1122 73.075 41.0013 14.2665ZM29.8591 111.916C29.8591 111.916 27.4715 109.874 26.8248 108.828V108.729L29.7099 44.6917C29.7099 44.4925 30.0083 44.4925 30.0083 44.6917L32.8933 108.729V108.828C32.2467 109.874 29.8591 111.916 29.8591 111.916Z" fill="#00684A"/>
</svg>
