<svg width="128" height="144" viewBox="0 0 128 144" fill="none" xmlns="http://www.w3.org/2000/svg">
<path d="M127.993 42.2744C127.992 39.8566 127.475 37.7202 126.429 35.8871C125.401 34.0835 123.862 32.5723 121.798 31.3774C104.758 21.5566 87.7007 11.7659 70.6659 1.93516C66.0734 -0.714873 61.6206 -0.617761 57.0622 2.07032C50.2796 6.0679 16.3216 25.5137 6.20263 31.3719C2.03532 33.7836 0.00751227 37.4739 0.00651063 42.2699C0 62.02 0.00651063 81.7701 0 101.52C0 103.885 0.49631 105.98 1.49644 107.786C2.52462 109.644 4.08517 111.196 6.19712 112.418C16.3166 118.276 50.2791 137.721 57.0602 141.72C61.6206 144.409 66.0734 144.505 70.6674 141.855C87.7027 132.024 104.761 122.233 121.803 112.412C123.915 111.191 125.476 109.637 126.504 107.781C127.503 105.975 128 103.88 128 101.515C128 101.515 128 62.025 127.993 42.2744Z" fill="#A179DC"/>
<path d="M64.1958 71.7026L1.49646 107.786C2.52464 109.644 4.08519 111.196 6.19713 112.418C16.3167 118.276 50.2791 137.721 57.0602 141.72C61.6206 144.409 66.0734 144.506 70.6674 141.855C87.7027 132.024 104.761 122.233 121.803 112.412C123.915 111.191 125.476 109.637 126.504 107.781L64.1958 71.7026Z" fill="#280068"/>
<path d="M127.993 42.2744C127.992 39.8567 127.475 37.7202 126.429 35.8871L64.1958 71.7031L126.504 107.781C127.503 105.975 127.999 103.88 128 101.515C128 101.515 128 62.0251 127.993 42.2744Z" fill="#390091"/>
<path d="M101.111 58.2137V64.9584H107.859V58.2137H111.233V64.9584H117.981V68.3308H111.233V75.075H117.981V78.4474H111.233V85.1921H107.859V78.4474H101.111V85.1921H97.7371V78.4474H90.9896V75.075H97.7371V68.3308H90.9896V64.9584H97.7371V58.2137H101.111ZM107.859 68.3303H101.111V75.075H107.859V68.3303Z" fill="white"/>
<path d="M64.3336 24.3409C81.9343 24.3409 97.3009 33.8948 105.532 48.0961L105.452 47.9594L84.7429 59.8771C80.6632 52.9727 73.184 48.3128 64.6035 48.2167L64.3331 48.2152C51.2492 48.2152 40.6419 58.8174 40.6419 71.8949C40.6376 76.0167 41.715 80.0677 43.7665 83.6433C47.8501 90.769 55.5272 95.575 64.3336 95.575C73.1945 95.575 80.9151 90.7079 84.9778 83.5062L84.8791 83.6789L105.556 95.6516C97.4156 109.733 82.2593 119.257 64.8634 119.447L64.3336 119.45C46.6772 119.45 31.2671 109.837 23.0567 95.5605C19.0486 88.591 16.7554 80.5112 16.7554 71.8949C16.7554 45.6318 38.0561 24.3404 64.3331 24.3404L64.3336 24.3409Z" fill="white"/>
</svg>
