<svg width="128" height="102" viewBox="0 0 128 102" fill="none" xmlns="http://www.w3.org/2000/svg">
<path d="M125.92 41.5098C122.782 39.3975 114.536 38.4954 108.541 40.1101C108.217 34.1387 105.139 29.1068 99.5059 24.7163L97.4207 23.3166L96.0311 25.4153C93.2993 29.5621 92.1484 35.0866 92.5563 40.1084C92.8779 43.2023 93.9543 46.6805 96.0311 49.2041C88.2285 53.73 81.0368 52.7026 49.1864 52.7026H0.01104C-0.132827 59.8943 1.02319 73.7292 9.82106 84.9914C10.7926 86.2354 11.8589 87.4388 13.0149 88.5982C20.1676 95.7611 30.9746 101.013 47.135 101.028C71.7887 101.05 92.9117 87.7249 105.76 55.5038C109.988 55.5732 121.149 56.2621 126.61 45.7073C126.744 45.5296 128 42.9078 128 42.9078L125.918 41.5081L125.92 41.5098ZM32.1035 34.9325H18.2753V48.7607H32.1035V34.9325ZM49.9683 34.9325H36.1402V48.7607H49.9683V34.9325ZM67.8332 34.9325H54.0051V48.7607H67.8332V34.9325ZM85.6981 34.9325H71.8699V48.7607H85.6981V34.9325ZM14.2386 34.9325H0.410482V48.7607H14.2386V34.9325ZM32.1035 17.4671H18.2753V31.2953H32.1035V17.4671ZM49.9683 17.4671H36.1402V31.2953H49.9683V17.4671ZM67.8332 17.4671H54.0051V31.2953H67.8332V17.4671ZM67.8332 0H54.0051V13.8281H67.8332V0Z" fill="#1D63ED"/>
</svg>
