<svg width="128" height="67" viewBox="0 0 128 67" fill="none" xmlns="http://www.w3.org/2000/svg">
<path d="M0 60.2071H4.2169V43.5608L10.7451 58.0777C11.5151 59.8277 12.5701 60.4565 14.6376 60.4565C16.7051 60.4565 17.7188 59.8346 18.4901 58.0777L25.0189 43.5608V60.2133H29.2364V43.5883C29.2364 41.9664 28.5864 41.182 27.2489 40.777C24.0457 39.777 21.8964 40.642 20.9239 42.8045L14.5176 57.1315L8.31254 42.7983C7.38004 40.6357 5.19065 39.7707 1.98751 40.7707C0.648753 41.1764 0 41.9608 0 43.582V60.2071ZM32.7414 46.6533H36.9571V55.8283C36.9177 56.3271 37.1171 57.4971 39.4271 57.5327C40.6058 57.5515 48.5234 57.5327 48.5971 57.5327V46.6076H52.8221C52.8409 46.6076 52.8178 61.504 52.8184 61.5677C52.8415 65.2415 48.2596 66.0396 46.1484 66.1015H32.8333V63.264L46.1721 63.2634C48.8859 62.9759 48.5659 61.6277 48.5659 61.1733V60.0671H39.6033C35.4333 60.0296 32.7783 58.209 32.7452 56.1152C32.742 55.9277 32.8352 46.7433 32.7427 46.6527L32.7414 46.6533Z" fill="#00618A"/>
<path d="M56.0728 60.2071H68.1966C69.6154 60.2071 70.9948 59.9102 72.0904 59.3958C73.9154 58.5583 74.8073 57.4227 74.8073 55.9358V52.8545C74.8073 51.6377 73.7935 50.5027 71.8073 49.7458C70.7529 49.3395 69.4554 49.1239 68.1985 49.1239H63.0891C61.3866 49.1239 60.5753 48.6101 60.3728 47.4751C60.3322 47.3401 60.3322 47.2251 60.3322 47.0964V45.1776C60.3322 45.0695 60.3322 44.9608 60.3728 44.8258C60.5753 43.9608 61.0216 43.717 62.5216 43.5757C62.6435 43.5757 62.8053 43.5482 62.9278 43.5482H74.9704V40.7376H63.1303C61.4272 40.7376 60.5353 40.8457 59.7241 41.0889C57.2078 41.8732 56.1128 43.1232 56.1128 45.2858V47.7458C56.1128 49.6383 58.2628 51.2602 61.8703 51.6383C62.2766 51.6652 62.6816 51.692 63.0866 51.692H67.466C67.6285 51.692 67.791 51.692 67.9122 51.7195C69.2498 51.8277 69.8185 52.0708 70.2235 52.557C70.4735 52.807 70.5485 53.0445 70.5485 53.307V55.7671C70.5485 56.0646 70.346 56.4433 69.9404 56.7671C69.5754 57.0921 68.9673 57.3077 68.156 57.3621C67.9935 57.3621 67.8722 57.3889 67.7104 57.3889H56.0728V60.2002V60.2071ZM101.113 55.3146C101.113 58.2071 103.262 59.829 107.601 60.1533C108.005 60.1847 108.411 60.2026 108.817 60.2071H119.806V57.3958H108.736C106.262 57.3958 105.329 56.7739 105.329 55.2871V40.7432H101.112V55.3133L101.113 55.3146ZM77.4973 55.4608V45.4389C77.4973 42.8926 79.2848 41.3482 82.8198 40.8607C83.1968 40.8069 83.5771 40.7797 83.958 40.7795H91.9624C92.3567 40.7797 92.7505 40.8069 93.1411 40.8607C96.6761 41.3482 98.4636 42.892 98.4636 45.4389V55.4608C98.4636 57.5264 97.7043 58.6321 95.9543 59.3527L100.108 63.1027H95.2118L91.8511 60.069L88.468 60.2833H83.958C83.1861 60.2833 82.3736 60.1746 81.4792 59.9308C78.7917 59.1996 77.4973 57.7908 77.4973 55.4608ZM82.0492 55.2108C82.0492 55.3464 82.0898 55.4814 82.1304 55.6446C82.3804 56.8096 83.4711 57.4596 85.1305 57.4596H88.9617L85.443 54.2827H90.3392L93.4017 57.0533C93.9674 56.7521 94.3393 56.2908 94.4643 55.6989C94.5049 55.5639 94.5049 55.4283 94.5049 55.2927V45.6833C94.5049 45.5751 94.5049 45.4333 94.4643 45.3039C94.2143 44.2208 93.123 43.5976 91.498 43.5976H85.138C83.2629 43.5976 82.0504 44.4101 82.0504 45.6833V55.2183L82.0492 55.2108Z" fill="#E48E00"/>
<path d="M123.516 36.0795C120.924 36.0095 118.943 36.2501 117.251 36.9639C116.769 37.167 116.002 37.172 115.924 37.7751C116.188 38.052 116.23 38.4657 116.439 38.8064C116.844 39.4607 117.527 40.3376 118.135 40.7964C118.8 41.2983 119.485 41.8358 120.199 42.2714C121.468 43.0451 122.884 43.487 124.106 44.2614C124.826 44.7176 125.541 45.2926 126.243 45.8089C126.59 46.0639 126.824 46.4602 127.274 46.6195V46.5458C127.037 46.2439 126.976 45.8289 126.759 45.5145L125.801 44.5564C124.863 43.3064 123.674 42.2208 122.41 41.3126C121.402 40.5889 119.145 39.6114 118.724 38.4376L118.651 38.3639C119.366 38.2826 120.202 38.0245 120.863 37.8482C121.971 37.5514 122.962 37.6276 124.107 37.3326L125.655 36.8901V36.5951C125.076 36.0014 124.664 35.2157 124.033 34.6788C122.383 33.2726 120.581 31.8695 118.727 30.6976C117.698 30.0476 116.427 29.6263 115.336 29.0757C114.969 28.8907 114.325 28.7944 114.083 28.4857C113.511 27.7557 113.199 26.8294 112.757 25.9857C111.832 24.2044 110.923 22.2582 110.103 20.3838C109.544 19.1056 109.178 17.845 108.482 16.6981C105.135 11.1956 101.532 7.87434 95.9517 4.61057C94.7642 3.91682 93.3348 3.64182 91.8236 3.28369L89.391 3.13619C88.896 2.92994 88.381 2.32368 87.916 2.02993C86.0673 0.861176 81.3254 -1.67821 79.956 1.65493C79.0916 3.76307 81.2479 5.81995 82.0198 6.88871C82.561 7.63871 83.2548 8.47809 83.641 9.32122C83.8954 9.87497 83.9398 10.4306 84.1573 11.0169C84.6929 12.4544 85.1592 14.0312 85.8523 15.3656C86.2023 16.0406 86.5885 16.7519 87.0317 17.3556C87.3035 17.7263 87.7692 17.8894 87.8423 18.4619C87.3873 19.0994 87.361 20.0869 87.1048 20.8944C85.9529 24.5269 86.3873 29.0413 88.0629 31.7301C88.5773 32.5551 89.7879 34.3251 91.4536 33.6463C92.9098 33.0526 92.5786 31.2151 93.0017 29.5926C93.0954 29.2238 93.0379 28.9551 93.2229 28.7082V28.7819L94.5498 31.4351C95.5311 33.0163 97.2748 34.6695 98.7511 35.7851C99.5167 36.3632 100.126 37.3632 101.11 37.7014V37.6276H101.036C100.844 37.3276 100.544 37.2045 100.299 36.9651C99.7217 36.3995 99.0799 35.6964 98.603 35.0489C97.2592 33.2251 96.073 31.2301 94.9917 29.1519C94.4754 28.1601 94.0261 27.0657 93.5917 26.0563C93.4242 25.6669 93.4261 25.0788 93.0761 24.8769C92.5992 25.6169 91.8967 26.2144 91.5279 27.0882C90.9379 28.4844 90.8617 30.1869 90.6436 31.9532C90.5142 31.9995 90.5717 31.9676 90.4961 32.027C89.4698 31.7795 89.1085 30.7226 88.7273 29.8157C87.7623 27.5219 87.5835 23.8307 88.4323 21.1919C88.651 20.5094 89.6448 18.3581 89.2429 17.7275C89.051 17.0981 88.4179 16.7275 88.0635 16.2525C87.626 15.6588 87.1873 14.875 86.8842 14.1887C86.0942 12.4012 85.7254 10.395 84.8942 8.58684C84.4966 7.72309 83.8254 6.84933 83.2729 6.08683C82.6616 5.23682 81.9773 4.60932 81.5041 3.58681C81.3354 3.22119 81.1066 2.63681 81.3566 2.25993C81.3805 2.15165 81.4348 2.05245 81.5133 1.97405C81.5917 1.89564 81.6909 1.8413 81.7991 1.81743C82.2266 1.48805 83.4179 1.92681 83.8629 2.11243C85.0441 2.60369 86.0317 3.07119 87.0329 3.73432C87.5142 4.04682 87.9998 4.66932 88.5804 4.84057H89.2429C90.2804 5.07932 91.4429 4.91557 92.4117 5.20932C94.1254 5.72995 95.6604 6.54058 97.0555 7.42058C101.304 10.1031 104.777 13.9219 107.154 18.4831C107.536 19.2163 107.701 19.9169 108.038 20.6944C108.717 22.2569 109.573 23.8775 110.249 25.4113C110.924 26.9426 111.581 28.4863 112.534 29.7601C113.036 30.4288 114.972 30.7888 115.851 31.1601C116.468 31.4207 117.478 31.6926 118.062 32.0445C119.178 32.7176 120.259 33.5195 121.306 34.257C121.829 34.6257 123.437 35.4339 123.517 36.0995L123.516 36.0795Z" fill="#00618A"/>
<path fill-rule="evenodd" clip-rule="evenodd" d="M90.5692 7.99686C90.0286 7.98686 89.6467 8.05561 89.2423 8.14436V8.21811H89.3161C89.5736 8.74811 90.0286 9.08874 90.3473 9.54499L91.0848 11.0925L91.1586 11.0187C91.6148 10.6969 91.8242 10.1825 91.8211 9.39686C91.6379 9.20436 91.6111 8.96311 91.4523 8.73311C91.2417 8.42686 90.8273 8.25311 90.5679 7.99561L90.5692 7.99686Z" fill="#00618A"/>
<path fill-rule="evenodd" clip-rule="evenodd" d="M121.785 57.3158C121.785 59.1721 123.252 60.4233 124.892 60.4233C126.533 60.4233 128 59.1721 128 57.3158C128 55.4596 126.533 54.2083 124.892 54.2083C123.252 54.2083 121.785 55.4596 121.785 57.3158ZM127.304 57.3158C127.304 58.7246 126.227 59.7771 124.891 59.7771C123.541 59.7771 122.479 58.7246 122.479 57.3158C122.479 55.9071 123.54 54.8546 124.891 54.8546C126.226 54.8546 127.304 55.9071 127.304 57.3158ZM125.729 59.0896H126.424L125.406 57.5321C125.952 57.474 126.366 57.2083 126.366 56.5621C126.366 55.8408 125.91 55.5433 125.032 55.5433H123.648V59.0902H124.245V57.5571H124.8L125.728 59.0902L125.729 59.0896ZM124.245 57.0583V56.0396H124.932C125.289 56.0396 125.72 56.1058 125.72 56.5208C125.72 57.0177 125.331 57.0596 124.882 57.0596H124.245V57.0583Z" fill="#E48E00"/>
</svg>
