<svg width="128" height="128" viewBox="0 0 128 128" fill="none" xmlns="http://www.w3.org/2000/svg">
<path d="M18.4933 100.196C16.964 101.503 14.8295 101.838 12.9733 101.063L3.28 96.9959C1.30331 96.1714 0.0116142 94.2443 0 92.1026V35.2226C0.0116142 33.0809 1.30331 31.1538 3.28 30.3293L12.9733 26.3293C14.8295 25.5541 16.964 25.8892 18.4933 27.1959L20.6667 28.9959C19.768 28.3499 18.5832 28.2619 17.599 28.7681C16.6148 29.2742 15.9972 30.2892 16 31.3959V95.9293C15.9972 97.036 16.6148 98.051 17.599 98.5571C18.5832 99.0633 19.768 98.9753 20.6667 98.3293L18.4933 100.196Z" fill="#52218A"/>
<path d="M3.28 96.996C1.30331 96.1714 0.0116142 94.2444 0 92.1026V91.6626C0.0134467 92.9222 0.792461 94.0466 1.96696 94.5017C3.14145 94.9568 4.47471 94.6509 5.33333 93.7293L88 2.3293C90.3989 -0.0576668 94.0402 -0.677008 97.0933 0.782638L123.467 13.476C126.239 14.8089 128.001 17.6133 128 20.6893V20.996C127.998 19.0442 126.873 17.2679 125.109 16.4328C123.345 15.5978 121.257 15.8533 119.747 17.0893L20.6667 98.3293L18.4933 100.196C16.964 101.503 14.8295 101.838 12.9733 101.063L3.28 96.996Z" fill="#6C33AF"/>
<path d="M3.28 30.3293C1.30331 31.1539 0.0116142 33.0809 0 35.2227V35.6627C0.0134467 34.4032 0.792461 33.2788 1.96696 32.8236C3.14145 32.3685 4.47471 32.6744 5.33333 33.596L88 124.996C90.3989 127.383 94.0402 128.002 97.0933 126.543L123.467 113.849C126.239 112.516 128.001 109.712 128 106.636V106.329C127.998 108.281 126.873 110.057 125.109 110.892C123.345 111.728 121.257 111.472 119.747 110.236L20.6667 28.996L18.4933 27.1293C16.9505 25.8451 14.8173 25.5359 12.9733 26.3293L3.28 30.3293Z" fill="#854CC7"/>
<path d="M97.0933 126.543C94.0402 128.002 90.3989 127.383 88 124.996C89.3436 126.33 91.357 126.726 93.1057 126C94.8543 125.275 95.9957 123.569 96 121.676V5.67597C96.0065 3.77787 94.869 2.06273 93.118 1.3302C91.3669 0.597673 89.347 0.991987 88 2.3293C90.3989 -0.0576668 94.0402 -0.677008 97.0933 0.782638L123.467 13.4626C126.239 14.7956 128.001 17.5999 128 20.676V106.649C128.001 109.725 126.239 112.53 123.467 113.863L97.0933 126.543Z" fill="#B179F1"/>
</svg>
