<svg width="128" height="145" viewBox="0 0 128 145" fill="none" xmlns="http://www.w3.org/2000/svg">
<path d="M126.372 108.031C127.376 106.291 128 104.331 128 102.571V41.4703C128 39.7101 127.377 37.7504 126.372 36.0107L64 72.0209L126.372 108.031Z" fill="#00599C"/>
<path d="M69.5425 142.721L122.457 112.171C123.982 111.291 125.367 109.771 126.372 108.031L64 72.0209L1.62842 108.032C2.63276 109.771 4.01859 111.291 5.54246 112.171L58.4575 142.721C61.5056 144.481 66.4943 144.481 69.5425 142.721Z" fill="#004482"/>
<path d="M126.372 36.0102C125.367 34.2701 123.981 32.7504 122.458 31.8703L69.5425 1.32016C66.4943 -0.440052 61.5057 -0.440052 58.4575 1.32016L5.54248 31.8703C2.49391 33.6301 0 37.9503 0 41.4703V102.571C0 104.331 0.623686 106.291 1.62844 108.031L64 72.0209L126.372 36.0102Z" fill="#659AD2"/>
<path d="M64 114.688C40.4735 114.688 21.3333 95.5474 21.3333 72.0209C21.3333 48.4944 40.4735 29.3542 64 29.3542C79.1809 29.3542 93.3392 37.5237 100.949 50.6742L82.4839 61.3593C78.6752 54.7769 71.5921 50.6876 64 50.6876C52.2365 50.6876 42.6666 60.2575 42.6666 72.0209C42.6666 83.7839 52.2365 93.3542 64 93.3542C71.593 93.3542 78.6761 89.2649 82.4851 82.6813L100.95 93.366C93.3404 106.518 79.1818 114.688 64 114.688Z" fill="white"/>
<path d="M106.667 69.6504H101.926V64.9098H97.1855V69.6504H92.4445V74.391H97.1855V79.132H101.926V74.391H106.667V69.6504Z" fill="white"/>
<path d="M124.444 69.6504H119.703V64.9098H114.963V69.6504H110.222V74.391H114.963V79.132H119.703V74.391H124.444V69.6504Z" fill="white"/>
</svg>
