<svg width="132" height="117" viewBox="0 0 132 117" fill="none" xmlns="http://www.w3.org/2000/svg">
<path d="M66.0008 70.4486C72.595 70.4486 77.9407 65.103 77.9407 58.5088C77.9407 51.9146 72.595 46.569 66.0008 46.569C59.4066 46.569 54.061 51.9146 54.061 58.5088C54.061 65.103 59.4066 70.4486 66.0008 70.4486Z" fill="#00D8FF"/>
<path fill-rule="evenodd" clip-rule="evenodd" d="M66.0011 34.2327C82.0319 34.2327 96.9242 36.533 108.153 40.3986C121.682 45.0563 130 52.1161 130 58.5089C130 65.1705 121.184 72.6707 106.656 77.4843C95.6723 81.1233 81.2184 83.023 66.0011 83.023C50.3991 83.023 35.6249 81.2399 24.5174 77.4443C10.4643 72.6409 2 65.0437 2 58.5089C2 52.168 9.94212 45.1627 23.2809 40.5121C34.5515 36.5827 49.8115 34.2327 65.9989 34.2327H66.0011Z" stroke="#00D8FF" stroke-width="2.73408"/>
<path fill-rule="evenodd" clip-rule="evenodd" d="M44.8679 46.4406C52.8767 32.5537 62.3087 20.8021 71.2671 13.0061C82.0604 3.61316 92.3319 -0.0653985 97.8695 3.12787C103.641 6.45585 105.734 17.8397 102.645 32.8295C100.313 44.1627 94.7357 57.6322 87.1334 70.8146C79.3389 84.3303 70.4138 96.238 61.5775 103.962C50.3962 113.736 39.5862 117.273 33.9253 114.008C28.4322 110.843 26.3316 100.461 28.9668 86.5827C31.1933 74.8564 36.7808 60.4632 44.8653 46.4404L44.8679 46.4406Z" stroke="#00D8FF" stroke-width="2.73408"/>
<path fill-rule="evenodd" clip-rule="evenodd" d="M44.8879 70.8501C36.8565 56.9789 31.3884 42.9356 29.106 31.2811C26.3585 17.239 28.3011 6.50273 33.8337 3.30017C39.599 -0.0375624 50.5069 3.83425 61.9512 13.996C70.604 21.6787 79.4891 33.2353 87.1135 46.4054C94.9304 59.908 100.789 73.5876 103.068 85.1002C105.952 99.669 103.618 110.801 97.9623 114.075C92.4747 117.251 82.4327 113.888 71.725 104.673C62.6778 96.8884 52.9985 84.8591 44.8879 70.8498V70.8501Z" stroke="#00D8FF" stroke-width="2.73408"/>
</svg>
