<svg width="128" height="122" viewBox="0 0 128 122" fill="none" xmlns="http://www.w3.org/2000/svg">
<path d="M88.6905 84.8664C93.4142 84.3777 96.9976 80.3054 96.8347 75.4187C96.6719 70.5319 92.5997 66.6226 87.7132 66.6226H87.3874C82.3379 66.7854 78.4287 71.0206 78.5916 76.0702C78.7545 78.5136 79.7318 80.6312 81.1977 82.0972C75.6596 93.0109 67.1896 100.993 54.4845 107.671C45.8516 112.232 36.8929 113.861 27.9342 112.721C20.6044 111.743 14.9034 108.486 11.3199 103.11C6.10759 95.1285 5.61893 86.4953 10.0168 77.8621C13.1117 71.6722 17.9982 67.1112 21.093 64.8307C20.4415 62.7132 19.4642 59.1295 18.9755 56.5233C-4.64285 73.6269 -2.19957 96.7574 4.96739 107.671C10.3426 115.816 21.2559 120.865 33.3094 120.865C36.5672 120.865 39.8249 120.54 43.0826 119.725C63.9319 115.653 79.7318 103.273 88.6905 84.8664ZM117.358 64.6679C104.979 50.1705 86.7358 42.1889 65.8865 42.1889H63.2804C61.8144 39.2568 58.7196 37.3021 55.299 37.3021H54.9732C49.9238 37.465 46.0145 41.7002 46.1774 46.7498C46.3403 51.6365 50.4124 55.5459 55.299 55.5459H55.6247C59.2082 55.383 62.303 53.1026 63.6061 50.0076H66.5381C78.9174 50.0076 90.6451 53.5912 101.233 60.5956C109.377 65.971 115.241 72.9753 118.499 81.4457C121.268 88.2871 121.105 94.9656 118.173 100.667C113.612 109.3 105.956 114.024 95.8574 114.024C89.342 114.024 83.1524 112.069 79.8947 110.603C78.1029 112.232 74.8452 114.838 72.5648 116.467C79.5689 119.725 86.7359 121.517 93.577 121.517C109.214 121.517 120.779 112.884 125.177 104.25C129.9 94.8027 129.575 78.5136 117.358 64.6679ZM34.6125 87.6355C34.7754 92.5223 38.8476 96.4317 43.7341 96.4317H44.0599C49.1093 96.2688 53.0186 92.0336 52.8557 86.984C52.6928 82.0972 48.6207 78.1878 43.7341 78.1878H43.4083C43.0826 78.1878 42.5939 78.1878 42.2681 78.3507C35.5898 67.2741 32.8208 55.2202 33.7981 42.1889C34.4496 32.4154 37.7074 23.945 43.4083 16.9407C48.132 10.9137 57.2536 7.98167 63.4432 7.81878C80.7091 7.493 88.0389 28.9947 88.5276 37.6279C90.6451 38.1166 94.2286 39.2568 96.6719 40.0713C94.7172 13.6829 78.4287 0 62.7917 0C48.132 0 34.6125 10.5879 29.2373 26.2255C21.7446 47.0756 26.6311 67.1112 35.7527 82.9117C34.9383 84.0519 34.4496 85.8437 34.6125 87.6355Z" fill="#764ABC"/>
</svg>
