<svg width="128" height="128" viewBox="0 0 128 128" fill="none" xmlns="http://www.w3.org/2000/svg">
<path d="M47.7912 2.01848C64.3529 -2.22887 82.6562 0.246207 97.2622 9.26038C115.657 20.2607 127.666 41.0697 127.972 62.4898C128.644 84.1238 117.368 105.574 99.2484 117.339C79.0811 130.906 51.183 131.425 30.5879 118.53C9.59559 106.002 -2.65756 80.7321 0.489755 56.4702C3.02595 30.8333 22.8266 8.22146 47.7912 2.01848Z" fill="#010101"/>
<path d="M45.255 12.4994C76.5449 -0.0287968 114.924 23.1025 118.163 56.6535C123.205 86.8434 98.1483 117.522 67.5613 118.408C38.4715 121.311 10.3595 96.652 9.53444 67.44C7.36493 43.7892 22.9488 20.3218 45.255 12.4994Z" fill="white"/>
<path d="M48.4023 60.687C62.4278 49.2283 76.1477 37.3724 90.4787 26.2498C82.9618 37.8002 75.231 49.1978 67.7141 60.7481C61.2666 60.7787 54.8192 60.7787 48.4023 60.687Z" fill="#010101"/>
<path d="M60.2584 67.0733C66.7364 67.0733 73.1838 67.0733 79.6312 67.165C65.5141 78.5625 51.8553 90.5101 37.4938 101.602C45.0107 90.0518 52.7415 78.6237 60.2584 67.0733Z" fill="#010101"/>
</svg>
