<svg width="128" height="128" viewBox="0 0 128 128" fill="none" xmlns="http://www.w3.org/2000/svg">
<mask id="mask0_3_482" style="mask-type:luminance" maskUnits="userSpaceOnUse" x="0" y="0" width="128" height="128">
<path d="M90.767 126.796C92.783 127.581 95.082 127.531 97.117 126.552L123.47 113.871C126.239 112.539 128 109.736 128 106.661V20.679C128 17.6044 126.239 14.8018 123.47 13.4693L97.117 0.788328C94.4465 -0.496643 91.321 -0.181905 88.9775 1.52201C88.6425 1.76542 88.3235 2.03719 88.0245 2.33669L37.5745 48.363L15.5996 31.6823C13.5539 30.1295 10.6926 30.2567 8.79275 31.9849L1.74468 38.3962C-0.579266 40.5102 -0.581931 44.1662 1.73892 46.2836L20.7963 63.6699L1.73892 81.0564C-0.581931 83.1739 -0.579266 86.8299 1.74468 88.9439L8.79275 95.3549C10.6926 97.0834 13.5539 97.2104 15.5996 95.6579L37.5745 78.9769L88.0245 125.003C88.8225 125.802 89.7595 126.403 90.767 126.796ZM96.0195 34.6126L57.7395 63.6699L96.0195 92.7274V34.6126Z" fill="white"/>
</mask>
<g mask="url(#mask0_3_482)">
<path d="M123.548 13.4892L97.1746 0.79078C94.1221 -0.679061 90.4736 -0.059049 88.0776 2.33675L1.73998 81.0566C-0.582286 83.1741 -0.579616 86.8301 1.74574 88.9441L8.79807 95.3551C10.6992 97.0836 13.5622 97.2106 15.6091 95.6581L119.58 16.7835C123.068 14.1374 128.078 16.6252 128.078 21.0034V20.6972C128.078 17.624 126.317 14.8224 123.548 13.4892Z" fill="#0065A9"/>
</g>
<mask id="mask1_3_482" style="mask-type:luminance" maskUnits="userSpaceOnUse" x="0" y="0" width="128" height="128">
<path d="M90.767 126.796C92.783 127.581 95.082 127.531 97.117 126.552L123.47 113.871C126.239 112.539 128 109.736 128 106.661V20.679C128 17.6044 126.239 14.8018 123.47 13.4693L97.117 0.788328C94.4465 -0.496643 91.321 -0.181905 88.9775 1.52201C88.6425 1.76542 88.3235 2.03719 88.0245 2.33669L37.5745 48.363L15.5996 31.6823C13.5539 30.1295 10.6926 30.2567 8.79275 31.9849L1.74468 38.3962C-0.579266 40.5102 -0.581931 44.1662 1.73892 46.2836L20.7963 63.6699L1.73892 81.0564C-0.581931 83.1739 -0.579266 86.8299 1.74468 88.9439L8.79275 95.3549C10.6926 97.0834 13.5539 97.2104 15.5996 95.6579L37.5745 78.9769L88.0245 125.003C88.8225 125.802 89.7595 126.403 90.767 126.796ZM96.0195 34.6126L57.7395 63.6699L96.0195 92.7274V34.6126Z" fill="white"/>
</mask>
<g mask="url(#mask1_3_482)">
<path d="M123.548 113.851L97.1746 126.55C94.1221 128.019 90.4736 127.399 88.0776 125.004L1.73998 46.2836C-0.582286 44.1663 -0.579616 40.5101 1.74574 38.3962L8.79807 31.9849C10.6992 30.2567 13.5622 30.1294 15.6091 31.6823L119.58 110.557C123.068 113.203 128.078 110.715 128.078 106.337V106.643C128.078 109.716 126.317 112.518 123.548 113.851Z" fill="#007ACC"/>
</g>
<mask id="mask2_3_482" style="mask-type:luminance" maskUnits="userSpaceOnUse" x="0" y="0" width="128" height="128">
<path d="M90.767 126.796C92.783 127.581 95.082 127.531 97.117 126.552L123.47 113.871C126.239 112.539 128 109.736 128 106.661V20.679C128 17.6044 126.239 14.8018 123.47 13.4693L97.117 0.788328C94.4465 -0.496643 91.321 -0.181905 88.9775 1.52201C88.6425 1.76542 88.3235 2.03719 88.0245 2.33669L37.5745 48.363L15.5996 31.6823C13.5539 30.1295 10.6926 30.2567 8.79275 31.9849L1.74468 38.3962C-0.579266 40.5102 -0.581931 44.1662 1.73892 46.2836L20.7963 63.6699L1.73892 81.0564C-0.581931 83.1739 -0.579266 86.8299 1.74468 88.9439L8.79275 95.3549C10.6926 97.0834 13.5539 97.2104 15.5996 95.6579L37.5745 78.9769L88.0245 125.003C88.8225 125.802 89.7595 126.403 90.767 126.796ZM96.0195 34.6126L57.7395 63.6699L96.0195 92.7274V34.6126Z" fill="white"/>
</mask>
<g mask="url(#mask2_3_482)">
<path d="M97.092 126.56C94.0385 128.028 90.39 127.408 87.994 125.012C90.946 127.964 95.994 125.873 95.994 121.698V5.65845C95.994 1.48343 90.946 -0.607441 87.994 2.34475C90.39 -0.0512708 94.0385 -0.672158 97.092 0.796386L123.461 13.4774C126.232 14.8099 127.994 17.6124 127.994 20.687V106.67C127.994 109.744 126.232 112.547 123.461 113.879L97.092 126.56Z" fill="#1F9CF0"/>
</g>
</svg>
